<svg xmlns="http://www.w3.org/2000/svg"  viewBox="0 0 100 100" width="512px" height="512px"><path fill="#d53668" d="M75.954,57.442c-4.11,14.334-19.062,22.622-33.396,18.512c-14.334-4.11-22.622-19.062-18.512-33.396 s19.062-22.622,33.396-18.512S80.064,43.108,75.954,57.442z M50.827,47.116c-1.593-0.457-3.254,0.464-3.711,2.057 s0.464,3.254,2.057,3.711s3.254-0.464,3.711-2.057S52.42,47.573,50.827,47.116z M67.999,45.278c0.989-3.451-1.006-7.05-4.457-8.04 c-3.451-0.989-7.05,1.006-8.04,4.457c-0.989,3.451,1.006,7.05,4.457,8.04C63.41,50.724,67.009,48.729,67.999,45.278z M49.735,40.041c0.989-3.451-1.006-7.05-4.457-8.04c-3.451-0.989-7.05,1.006-8.04,4.457c-0.989,3.451,1.006,7.05,4.457,8.04 C45.146,45.487,48.745,43.492,49.735,40.041z M62.762,63.542c0.989-3.451-1.006-7.05-4.457-8.04 c-3.451-0.989-7.05,1.006-8.04,4.457c-0.989,3.451,1.006,7.05,4.457,8.04C58.173,68.988,61.772,66.993,62.762,63.542z M44.498,58.305c0.989-3.451-1.006-7.05-4.457-8.04c-3.451-0.989-7.05,1.006-8.04,4.457c-0.989,3.451,1.006,7.05,4.457,8.04 C39.909,63.751,43.508,61.756,44.498,58.305z"/><path fill="#7c8a9e" d="M81.742,45.871c-1.197-9.215-6.358-17.475-14.116-22.59l7.635,1.763 c5.919,1.367,9.61,7.273,8.244,13.193L81.742,45.871z"/><path fill="#1f212b" d="M81.743,46.871c-0.017,0-0.033,0-0.05-0.001c-0.483-0.024-0.881-0.39-0.942-0.87 c-1.161-8.944-6.146-16.92-13.676-21.884c-0.403-0.267-0.559-0.784-0.368-1.229c0.19-0.444,0.67-0.688,1.144-0.581l7.636,1.763 c3.123,0.721,5.778,2.615,7.478,5.333c1.698,2.718,2.236,5.936,1.516,9.059l-1.763,7.635 C82.611,46.551,82.206,46.871,81.743,46.871z M71.892,25.292c4.769,4.22,8.21,9.728,9.913,15.863l0.726-3.145 c0.602-2.603,0.152-5.283-1.263-7.548s-3.628-3.844-6.23-4.444L71.892,25.292z"/><path fill="#7c8a9e" d="M76.72,67.626c-5.116,7.758-13.375,12.92-22.59,14.116l7.635,1.763 c5.919,1.367,11.826-2.324,13.193-8.244L76.72,67.626z"/><path fill="#1f212b" d="M64.262,84.792c-0.906,0-1.817-0.103-2.722-0.312l-7.635-1.763c-0.472-0.109-0.798-0.54-0.774-1.023 s0.391-0.88,0.87-0.943c8.943-1.162,16.919-6.146,21.884-13.675c0.268-0.405,0.788-0.561,1.229-0.369 c0.445,0.19,0.689,0.672,0.581,1.144l-1.763,7.635c-0.721,3.123-2.615,5.778-5.334,7.477C68.667,84.17,66.483,84.792,64.262,84.792 z M58.845,81.805l3.145,0.726c2.603,0.602,5.284,0.152,7.549-1.263c2.266-1.416,3.844-3.628,4.444-6.231l0.727-3.145 C70.488,76.66,64.98,80.102,58.845,81.805z"/><path fill="#7c8a9e" d="M23.28,32.374c5.116-7.758,13.375-12.92,22.59-14.116l-7.635-1.763 c-5.919-1.367-11.826,2.324-13.193,8.244L23.28,32.374z"/><path fill="#1f212b" d="M23.28,33.374c-0.133,0-0.267-0.026-0.394-0.081c-0.445-0.19-0.689-0.672-0.581-1.144l1.763-7.635 c0.721-3.123,2.615-5.778,5.334-7.477c2.718-1.699,5.937-2.236,9.058-1.516l7.635,1.763c0.472,0.109,0.798,0.54,0.774,1.023 s-0.391,0.88-0.87,0.943c-8.943,1.162-16.919,6.146-21.884,13.675C23.925,33.212,23.607,33.374,23.28,33.374z M35.742,17.209 c-1.852,0-3.671,0.518-5.28,1.523c-2.266,1.416-3.844,3.628-4.444,6.231l-0.727,3.145c4.221-4.768,9.729-8.209,15.864-9.913 l-3.145-0.726C37.257,17.295,36.497,17.209,35.742,17.209z"/><path fill="#7c8a9e" d="M18.258,54.129c1.197,9.215,6.358,17.475,14.116,22.59l-7.635-1.763 c-5.919-1.367-9.61-7.273-8.244-13.193L18.258,54.129z"/><path fill="#1f212b" d="M32.374,77.72c-0.074,0-0.149-0.008-0.225-0.025l-7.636-1.763c-3.123-0.721-5.778-2.615-7.478-5.333 c-1.698-2.718-2.236-5.936-1.516-9.059l1.763-7.635c0.109-0.471,0.539-0.789,1.023-0.774c0.483,0.024,0.881,0.39,0.942,0.87 c1.161,8.944,6.146,16.92,13.676,21.884c0.403,0.267,0.559,0.784,0.368,1.229C33.133,77.487,32.767,77.72,32.374,77.72z M18.195,58.845L17.47,61.99c-0.602,2.603-0.152,5.283,1.263,7.548s3.628,3.844,6.23,4.444l3.146,0.726 C23.34,70.488,19.898,64.98,18.195,58.845z"/><path fill="#1f212b" d="M50.041,78.013c-2.592,0-5.199-0.363-7.759-1.097c-7.189-2.062-13.146-6.8-16.771-13.341 c-3.626-6.542-4.487-14.104-2.426-21.293c2.062-7.189,6.799-13.146,13.341-16.771c6.541-3.627,14.104-4.487,21.292-2.426 c7.189,2.062,13.146,6.8,16.771,13.341c3.626,6.542,4.487,14.104,2.426,21.293c-2.062,7.189-6.799,13.146-13.341,16.771 C59.362,76.824,54.728,78.013,50.041,78.013z M50.01,23.997c-11.306,0-21.734,7.439-25.003,18.836 c-3.951,13.781,4.045,28.208,17.826,32.159c13.78,3.953,28.207-4.043,32.16-17.826c3.951-13.781-4.045-28.208-17.826-32.159 C54.782,24.323,52.376,23.997,50.01,23.997z"/><path fill="#1f212b" d="M50.006,54.002c-0.37,0-0.742-0.052-1.108-0.157c-1.027-0.294-1.878-0.971-2.396-1.905 c-0.518-0.935-0.641-2.015-0.346-3.042c0.294-1.027,0.971-1.878,1.905-2.396c0.934-0.518,2.012-0.642,3.042-0.346 c1.027,0.294,1.878,0.971,2.396,1.905c0.518,0.935,0.641,2.015,0.346,3.042c-0.294,1.027-0.971,1.878-1.905,2.396 C51.338,53.832,50.676,54.002,50.006,54.002z M49.995,46.999c-0.502,0-0.998,0.127-1.45,0.377c-0.7,0.389-1.208,1.027-1.429,1.797 c-0.221,0.771-0.129,1.581,0.26,2.282c0.389,0.701,1.026,1.208,1.797,1.429c0.771,0.222,1.58,0.129,2.282-0.26 c0.7-0.389,1.208-1.027,1.429-1.797l0,0c0.221-0.771,0.129-1.581-0.26-2.282c-0.389-0.701-1.026-1.208-1.797-1.429 C50.553,47.038,50.273,46.999,49.995,46.999z"/><path fill="#1f212b" d="M61.762,50.99c-0.694,0-1.393-0.098-2.078-0.294c-1.926-0.552-3.521-1.821-4.493-3.573 c-0.971-1.752-1.202-3.777-0.649-5.703c1.127-3.93,5.109-6.214,9.069-5.199c0.268,0.069,0.429,0.341,0.36,0.608 c-0.068,0.268-0.344,0.43-0.608,0.36c-3.442-0.883-6.884,1.1-7.86,4.505c-0.479,1.669-0.278,3.425,0.563,4.943 c0.842,1.519,2.225,2.619,3.894,3.097c1.67,0.479,3.424,0.279,4.943-0.563c1.519-0.842,2.618-2.225,3.097-3.894 c0.34-1.186,0.338-2.434-0.007-3.611c-0.078-0.265,0.074-0.543,0.339-0.621c0.267-0.079,0.543,0.075,0.62,0.339 c0.398,1.359,0.401,2.8,0.009,4.167c-0.552,1.926-1.821,3.521-3.573,4.493C64.259,50.672,63.017,50.99,61.762,50.99z"/><path fill="#1f212b" d="M67.509,40.006c-0.158,0-0.314-0.075-0.411-0.216c-0.496-0.718-1.117-1.318-1.849-1.784 c-0.233-0.148-0.302-0.458-0.153-0.69c0.15-0.233,0.46-0.3,0.69-0.153c0.845,0.538,1.563,1.231,2.134,2.059 c0.157,0.228,0.101,0.539-0.127,0.696C67.706,39.977,67.607,40.006,67.509,40.006z"/><path fill="#1f212b" d="M43.482,45.75c-0.683,0-1.376-0.094-2.063-0.292c-3.975-1.14-6.281-5.302-5.142-9.277 c1.14-3.976,5.297-6.284,9.276-5.142c3.976,1.14,6.282,5.302,5.143,9.276l0,0C49.753,43.604,46.744,45.75,43.482,45.75z M43.478,31.747c-1.088,0-2.164,0.276-3.143,0.818c-1.519,0.842-2.618,2.225-3.097,3.893c-0.987,3.445,1.012,7.052,4.456,8.041 c3.44,0.987,7.053-1.011,8.041-4.457l0,0c0.987-3.445-1.012-7.052-4.457-8.04C44.685,31.831,44.079,31.747,43.478,31.747z"/><path fill="#1f212b" d="M56.511,69.251c-0.683,0-1.376-0.094-2.064-0.292c-3.976-1.14-6.282-5.302-5.143-9.276 c1.141-3.975,5.307-6.282,9.277-5.143c3.975,1.14,6.281,5.302,5.142,9.277l0,0C62.78,67.105,59.771,69.251,56.511,69.251z M56.517,55.25c-2.826,0-5.435,1.86-6.252,4.709c-0.987,3.445,1.012,7.052,4.457,8.04c1.668,0.479,3.424,0.279,4.943-0.563 c1.519-0.842,2.618-2.225,3.097-3.893c0.987-3.445-1.012-7.052-4.456-8.041C57.71,55.331,57.108,55.25,56.517,55.25z"/><path fill="#1f212b" d="M36.488,63.787c-0.042,0-0.085-0.005-0.127-0.017l-0.176-0.048 c-0.295-0.085-0.578-0.185-0.851-0.299c-0.255-0.107-0.375-0.4-0.268-0.654c0.106-0.254,0.398-0.376,0.654-0.268 c0.237,0.1,0.483,0.186,0.737,0.259l0.156,0.043c0.268,0.07,0.427,0.344,0.356,0.611C36.913,63.638,36.71,63.787,36.488,63.787z"/><path fill="#1f212b" d="M33.731,62.36c-0.114,0-0.229-0.039-0.323-0.119c-0.81-0.686-1.479-1.557-1.937-2.52 c-0.118-0.25-0.012-0.548,0.238-0.666c0.244-0.118,0.547-0.013,0.666,0.237c0.396,0.835,0.977,1.591,1.679,2.186 c0.211,0.178,0.236,0.494,0.059,0.705C34.014,62.3,33.873,62.36,33.731,62.36z"/><path fill="#1f212b" d="M38.5,64.009c-0.269,0-0.49-0.212-0.5-0.482c-0.01-0.276,0.206-0.507,0.482-0.517 c2.818-0.101,5.235-1.991,6.014-4.705c0.987-3.444-1.011-7.05-4.455-8.038c-3.445-0.986-7.05,1.012-8.038,4.456 c-0.254,0.886-0.317,1.794-0.189,2.701c0.039,0.273-0.151,0.527-0.425,0.565c-0.282,0.038-0.527-0.151-0.565-0.425 c-0.148-1.047-0.074-2.095,0.219-3.117c1.139-3.975,5.304-6.282,9.274-5.141c3.975,1.14,6.28,5.3,5.141,9.274 c-0.897,3.131-3.687,5.313-6.939,5.429C38.512,64.009,38.506,64.009,38.5,64.009z"/></svg>