<?xml version="1.0" encoding="UTF-8" standalone="no"?>
<svg
   xmlns:dc="http://purl.org/dc/elements/1.1/"
   xmlns:cc="http://creativecommons.org/ns#"
   xmlns:rdf="http://www.w3.org/1999/02/22-rdf-syntax-ns#"
   xmlns:svg="http://www.w3.org/2000/svg"
   xmlns="http://www.w3.org/2000/svg"
   xmlns:sodipodi="http://sodipodi.sourceforge.net/DTD/sodipodi-0.dtd"
   xmlns:inkscape="http://www.inkscape.org/namespaces/inkscape"
   viewBox="0 0 1300 740"
   version="1.1"
   id="svg39"
   sodipodi:docname="aparat.svg"
   width="1300"
   height="740"
   inkscape:version="1.0.2 (1.0.2+r75+1)">
  <metadata
     id="metadata43">
    <rdf:RDF>
      <cc:Work
         rdf:about="">
        <dc:format>image/svg+xml</dc:format>
        <dc:type
           rdf:resource="http://purl.org/dc/dcmitype/StillImage" />
        <dc:title>logo--color-white--without_text</dc:title>
      </cc:Work>
    </rdf:RDF>
  </metadata>
  <sodipodi:namedview
     pagecolor="#353535"
     bordercolor="#666666"
     borderopacity="1"
     objecttolerance="10"
     gridtolerance="10"
     guidetolerance="10"
     inkscape:pageopacity="0"
     inkscape:pageshadow="2"
     inkscape:window-width="1024"
     inkscape:window-height="704"
     id="namedview41"
     showgrid="false"
     showguides="false"
     width="1300px"
     inkscape:snap-page="true"
     inkscape:zoom="0.39824481"
     inkscape:cx="736.44051"
     inkscape:cy="515.0025"
     inkscape:window-x="0"
     inkscape:window-y="27"
     inkscape:window-maximized="1"
     inkscape:current-layer="Layer_2" />
  <defs
     id="defs4">
    <style
       id="style2">.cls-1{fill:#fff;}.cls-2{fill:#ed145b;}</style>
    <clipPath
       id="clipPath136">
      <path
         d="m 324.76,197.5 c -13.004,0 -23.583,-10.579 -23.583,-23.582 v -29.863 c 0,-13.003 10.579,-23.583 23.583,-23.583 h 29.863 c 13.004,0 23.582,10.58 23.582,23.583 v 29.863 c 0,13.003 -10.578,23.582 -23.582,23.582 z m -17.816,-53.445 v 29.863 c 0,9.822 7.993,17.814 17.816,17.814 h 29.863 c 9.823,0 17.815,-7.992 17.815,-17.814 v -29.863 c 0,-9.823 -7.992,-17.815 -17.815,-17.815 H 324.76 c -9.823,0 -17.816,7.992 -17.816,17.815"
         id="path4" />
    </clipPath>
    <radialGradient
       id="radialGradient156"
       cx="0"
       cy="0"
       r="1"
       gradientTransform="matrix(110.95,88.76,88.76,-110.95,294.29,117.08)"
       gradientUnits="userSpaceOnUse">
      <stop
         stop-color="#f9ed41"
         offset="0"
         id="stop7" />
      <stop
         stop-color="#ff833d"
         offset=".23782"
         id="stop9" />
      <stop
         stop-color="#ff833d"
         offset=".24121"
         id="stop11" />
      <stop
         stop-color="#e7407b"
         offset=".45798"
         id="stop13" />
      <stop
         stop-color="#e7407b"
         offset=".4888"
         id="stop15" />
      <stop
         stop-color="#e7407b"
         offset=".49251"
         id="stop17" />
      <stop
         stop-color="#0028ff"
         offset="1"
         id="stop19" />
    </radialGradient>
    <clipPath
       id="clipPath166">
      <path
         d="m 320.21,158.99 c 0,-10.744 8.74,-19.484 19.484,-19.484 10.744,0 19.485,8.74 19.485,19.484 0,10.744 -8.741,19.485 -19.485,19.485 -10.744,0 -19.484,-8.741 -19.484,-19.485 m 5.906,0 c 0,7.488 6.091,13.579 13.578,13.579 7.488,0 13.579,-6.091 13.579,-13.579 0,-7.487 -6.091,-13.579 -13.579,-13.579 -7.487,0 -13.578,6.092 -13.578,13.579"
         id="path22-3" />
    </clipPath>
    <clipPath
       id="clipPath196">
      <path
         d="m 356.22,180.59 c 0,-2.801 2.271,-5.072 5.073,-5.072 2.802,0 5.073,2.271 5.073,5.072 0,2.803 -2.271,5.074 -5.073,5.074 -2.802,0 -5.073,-2.271 -5.073,-5.074"
         id="path25" />
    </clipPath>
  </defs>
  <title
     id="title6">logo--color-white--without_text</title>
  <g
     id="Layer_2"
     data-name="Layer 2"
     transform="matrix(6.9044902,0,0,6.9044902,-18.675794,108.6852)">
    <g
       id="brand"
       transform="matrix(0.97194937,0,0,0.97194937,3.1230095,4.6258516)">
      <g
         id="logo--color-white--without_text">
        <path
           class="cls-1"
           d="m 40.6,35.6 c 0,5.43 -6,4.61 -6,4.61 H 10.81 c -3.72,0 -4.57,-2.93 -4.57,-5.6 V 30.66 L 0,35.62 V 37 c 0,6.77 3.38,9.22 10.93,9.22 H 37.2 c 5.08,0 9.61,-3.47 9.61,-8.44 v -13 l -6.21,5.96 z"
           id="path8" />
        <polygon
           class="cls-1"
           points="55.97,46.24 55.97,17.13 49.65,23.07 49.65,46.24 "
           id="polygon10" />
        <path
           class="cls-1"
           d="m 63.07,42.63 c 0,4 -2.18,6.2 -6.34,6.2 l 4.07,6.11 c 2.31,0 8.62,-1.65 8.62,-12.84 V 24.3 l -6.35,6.36 z"
           id="path12" />
        <path
           class="cls-1"
           d="m 79.67,46.25 h 10.38 a 7.57,7.57 0 0 0 6.24,-2.76 9,9 0 0 0 1.94,-6 v -11.7 l -6.33,5.86 v 4.12 q 0,4.43 -3.2,4.43 H 78.3 c 0,0 0.07,-3 0.07,-4.7 V 16.66 L 72,22.61 v 16.18 q 0,7.46 7.67,7.46 z"
           id="path14" />
        <polygon
           class="cls-1"
           points="107.16,46.24 107.16,16.8 100.83,22.4 100.83,46.24 "
           id="polygon16" />
        <path
           class="cls-1"
           d="m 103.75,8.31 c -9.37,0 -11.85,6.31 -11.85,8.62 l 6.3,4 c 0,-4.16 1.05,-6.24 5,-6.24 h 6.21 l 6.36,-6.35 z"
           id="path18" />
        <polygon
           class="cls-1"
           points="6.19,24.31 6.19,30.64 27.38,30.64 21.43,24.31 "
           id="polygon20" />
        <path
           class="cls-1"
           d="m 91.39,56.79 5.31,-5 C 96.64,51.71 96.6,51.63 96.54,51.56 A 7.57,7.57 0 0 0 90.3,48.8 H 72.9 l 6.43,6 h 8.87 a 3.9,3.9 0 0 1 3.19,1.99 z"
           id="path22" />
        <path
           class="cls-1"
           d="m 83.94,55.81 h 4 a 3.36,3.36 0 0 1 2.69,1.65 l -2.43,2.45 z"
           id="path24" />
        <path
           class="cls-1"
           d="M 154,2 147.74,0.36 A 10.58,10.58 0 0 0 134.8,7.87 l -1.58,5.93 A 32.4,32.4 0 0 1 154,2 Z"
           id="path26" />
        <path
           class="cls-1"
           d="m 126.44,39.33 -1.54,5.8 a 10.58,10.58 0 0 0 7.51,12.94 l 6,1.6 A 32.41,32.41 0 0 1 126.44,39.33 Z"
           id="path28" />
        <path
           class="cls-1"
           d="m 185,10.25 -6.74,-1.79 a 32.4,32.4 0 0 1 12.4,21.7 l 1.85,-7 A 10.58,10.58 0 0 0 185,10.25 Z"
           id="path30" />
        <path
           class="cls-1"
           d="m 163.23,66.26 6.45,1.74 a 10.58,10.58 0 0 0 12.94,-7.51 l 1.82,-6.84 a 32.42,32.42 0 0 1 -21.21,12.61 z"
           id="path32" />
        <path
           class="cls-2"
           d="M 158.71,4.54 A 29.63,29.63 0 1 0 188.34,34.17 29.63,29.63 0 0 0 158.71,4.54 Z m -16.78,14.78 a 8.46,8.46 0 1 1 6.71,9.91 8.46,8.46 0 0 1 -6.71,-9.91 z m 12.31,25.6 a 8.46,8.46 0 1 1 -6.71,-9.92 8.46,8.46 0 0 1 6.71,9.92 z m 3.59,-6.85 a 3.76,3.76 0 1 1 4.41,-3 3.76,3.76 0 0 1 -4.41,3 z M 175.48,49 a 8.46,8.46 0 1 1 -6.71,-9.91 8.46,8.46 0 0 1 6.71,9.91 z m -5.6,-15.68 a 8.46,8.46 0 1 1 9.91,-6.71 8.46,8.46 0 0 1 -9.91,6.72 z"
           id="path34" />
      </g>
    </g>
  </g>
</svg>
