<?xml version="1.0" encoding="UTF-8" standalone="no"?>
<svg
   xmlns:dc="http://purl.org/dc/elements/1.1/"
   xmlns:cc="http://creativecommons.org/ns#"
   xmlns:rdf="http://www.w3.org/1999/02/22-rdf-syntax-ns#"
   xmlns:svg="http://www.w3.org/2000/svg"
   xmlns="http://www.w3.org/2000/svg"
   xmlns:xlink="http://www.w3.org/1999/xlink"
   xmlns:sodipodi="http://sodipodi.sourceforge.net/DTD/sodipodi-0.dtd"
   xmlns:inkscape="http://www.inkscape.org/namespaces/inkscape"
   width="666.67"
   height="666.67"
   version="1.1"
   viewBox="0 0 666.67 666.67"
   xml:space="preserve"
   id="svg50"
   sodipodi:docname="instagram.svg"
   inkscape:version="1.0.2 (1.0.2+r75+1)"><sodipodi:namedview
     pagecolor="#ffffff"
     bordercolor="#666666"
     borderopacity="1"
     objecttolerance="10"
     gridtolerance="10"
     guidetolerance="10"
     inkscape:pageopacity="0"
     inkscape:pageshadow="2"
     inkscape:window-width="1024"
     inkscape:window-height="704"
     id="namedview52"
     showgrid="false"
     inkscape:zoom="0.53881269"
     inkscape:cx="186.36154"
     inkscape:cy="270.18642"
     inkscape:window-x="0"
     inkscape:window-y="27"
     inkscape:window-maximized="1"
     inkscape:current-layer="svg50" /><metadata
     id="metadata2"><rdf:RDF><cc:Work
         rdf:about=""><dc:format>image/svg+xml</dc:format><dc:type
           rdf:resource="http://purl.org/dc/dcmitype/StillImage" /><dc:title /></cc:Work></rdf:RDF></metadata><defs
     id="defs28"><clipPath
       id="clipPath136"><path
         d="m324.76 197.5c-13.004 0-23.583-10.579-23.583-23.582v-29.863c0-13.003 10.579-23.583 23.583-23.583h29.863c13.004 0 23.582 10.58 23.582 23.583v29.863c0 13.003-10.578 23.582-23.582 23.582zm-17.816-53.445v29.863c0 9.822 7.993 17.814 17.816 17.814h29.863c9.823 0 17.815-7.992 17.815-17.814v-29.863c0-9.823-7.992-17.815-17.815-17.815h-29.863c-9.823 0-17.816 7.992-17.816 17.815"
         id="path4" /></clipPath><radialGradient
       id="radialGradient156"
       cx="0"
       cy="0"
       r="1"
       gradientTransform="matrix(110.95 88.76 88.76 -110.95 294.29 117.08)"
       gradientUnits="userSpaceOnUse"><stop
         stop-color="#f9ed41"
         offset="0"
         id="stop7" /><stop
         stop-color="#ff833d"
         offset=".23782"
         id="stop9" /><stop
         stop-color="#ff833d"
         offset=".24121"
         id="stop11" /><stop
         stop-color="#e7407b"
         offset=".45798"
         id="stop13" /><stop
         stop-color="#e7407b"
         offset=".4888"
         id="stop15" /><stop
         stop-color="#e7407b"
         offset=".49251"
         id="stop17" /><stop
         stop-color="#0028ff"
         offset="1"
         id="stop19" /></radialGradient><clipPath
       id="clipPath166"><path
         d="m320.21 158.99c0-10.744 8.74-19.484 19.484-19.484s19.485 8.74 19.485 19.484-8.741 19.485-19.485 19.485-19.484-8.741-19.484-19.485m5.906 0c0 7.488 6.091 13.579 13.578 13.579 7.488 0 13.579-6.091 13.579-13.579 0-7.487-6.091-13.579-13.579-13.579-7.487 0-13.578 6.092-13.578 13.579"
         id="path22" /></clipPath><clipPath
       id="clipPath196"><path
         d="m356.22 180.59c0-2.801 2.271-5.072 5.073-5.072s5.073 2.271 5.073 5.072c0 2.803-2.271 5.074-5.073 5.074s-5.073-2.271-5.073-5.074"
         id="path25" /></clipPath><radialGradient
       inkscape:collect="always"
       xlink:href="#radialGradient156"
       id="radialGradient54"
       gradientUnits="userSpaceOnUse"
       gradientTransform="matrix(110.95,88.76,88.76,-110.95,294.29,117.08)"
       cx="0"
       cy="0"
       r="1" /><radialGradient
       inkscape:collect="always"
       xlink:href="#radialGradient156"
       id="radialGradient56"
       gradientUnits="userSpaceOnUse"
       gradientTransform="matrix(110.95,88.76,88.76,-110.95,294.29,117.08)"
       cx="0"
       cy="0"
       r="1" /><radialGradient
       inkscape:collect="always"
       xlink:href="#radialGradient156"
       id="radialGradient58"
       gradientUnits="userSpaceOnUse"
       gradientTransform="matrix(110.95,88.76,88.76,-110.95,294.29,117.08)"
       cx="0"
       cy="0"
       r="1" /></defs><g
     id="g96"><g
       id="g85"><g
         transform="matrix(4.6038849,0,0,-4.6038849,465.10095,647.71383)"
         id="g32"><path
           d="M 0,0 H -57.231 C -79.139,0 -96.9,17.76 -96.9,39.669 V 96.9 c 0,21.909 17.761,39.669 39.669,39.669 H 0 c 21.909,0 39.669,-17.76 39.669,-39.669 V 39.669 C 39.669,17.76 21.909,0 0,0"
           fill="#ffffff"
           id="path30" /></g><g
         clip-path="url(#clipPath136)"
         id="g36"
         transform="matrix(7.7751921,0,0,-7.7751921,-2307.8204,1569.4934)"><path
           d="m 324.76,197.5 c -13.004,0 -23.583,-10.579 -23.583,-23.582 v -29.863 c 0,-13.003 10.579,-23.583 23.583,-23.583 h 29.863 c 13.004,0 23.582,10.58 23.582,23.583 v 29.863 c 0,13.003 -10.578,23.582 -23.582,23.582 z m -17.816,-53.445 v 29.863 c 0,9.822 7.993,17.814 17.816,17.814 h 29.863 c 9.823,0 17.815,-7.992 17.815,-17.814 v -29.863 c 0,-9.823 -7.992,-17.815 -17.815,-17.815 H 324.76 c -9.823,0 -17.816,7.992 -17.816,17.815"
           fill="url(#radialGradient156)"
           id="path34"
           style="fill:url(#radialGradient54)" /></g><g
         clip-path="url(#clipPath166)"
         id="g40"
         transform="matrix(7.7751921,0,0,-7.7751921,-2307.8204,1569.4934)"><path
           d="m 320.21,158.99 c 0,-10.744 8.74,-19.484 19.484,-19.484 10.744,0 19.485,8.74 19.485,19.484 0,10.744 -8.741,19.485 -19.485,19.485 -10.744,0 -19.484,-8.741 -19.484,-19.485 m 5.906,0 c 0,7.488 6.091,13.579 13.578,13.579 7.488,0 13.579,-6.091 13.579,-13.579 0,-7.487 -6.091,-13.579 -13.579,-13.579 -7.487,0 -13.578,6.092 -13.578,13.579"
           fill="url(#radialGradient156)"
           id="path38"
           style="fill:url(#radialGradient56)" /></g><g
         clip-path="url(#clipPath196)"
         id="g44"
         transform="matrix(7.7751921,0,0,-7.7751921,-2307.8204,1569.4934)"><path
           d="m 356.22,180.59 c 0,-2.801 2.271,-5.072 5.073,-5.072 2.802,0 5.073,2.271 5.073,5.072 0,2.803 -2.271,5.074 -5.073,5.074 -2.802,0 -5.073,-2.271 -5.073,-5.074"
           fill="url(#radialGradient156)"
           id="path42"
           style="fill:url(#radialGradient58)" /></g></g></g></svg>
