<?xml version="1.0" encoding="UTF-8" standalone="no"?>
<svg
   xmlns:dc="http://purl.org/dc/elements/1.1/"
   xmlns:cc="http://creativecommons.org/ns#"
   xmlns:rdf="http://www.w3.org/1999/02/22-rdf-syntax-ns#"
   xmlns:svg="http://www.w3.org/2000/svg"
   xmlns="http://www.w3.org/2000/svg"
   xmlns:sodipodi="http://sodipodi.sourceforge.net/DTD/sodipodi-0.dtd"
   xmlns:inkscape="http://www.inkscape.org/namespaces/inkscape"
   width="1300"
   height="740"
   version="1.1"
   viewBox="0 0 343.95833 195.79167"
   id="svg12"
   sodipodi:docname="namasha.svg"
   inkscape:version="1.0.2 (1.0.2+r75+1)">
  <defs
     id="defs16" />
  <sodipodi:namedview
     pagecolor="#404040"
     bordercolor="#666666"
     borderopacity="1"
     objecttolerance="10"
     gridtolerance="10"
     guidetolerance="10"
     inkscape:pageopacity="0"
     inkscape:pageshadow="2"
     inkscape:window-width="1024"
     inkscape:window-height="704"
     id="namedview14"
     showgrid="false"
     inkscape:snap-page="true"
     inkscape:snap-bbox="true"
     inkscape:bbox-paths="true"
     inkscape:bbox-nodes="true"
     inkscape:snap-bbox-edge-midpoints="true"
     inkscape:snap-bbox-midpoints="true"
     inkscape:object-paths="true"
     inkscape:snap-intersection-paths="true"
     inkscape:snap-smooth-nodes="true"
     inkscape:snap-midpoints="true"
     inkscape:zoom="0.22630208"
     inkscape:cx="-307.88053"
     inkscape:cy="593.46284"
     inkscape:window-x="0"
     inkscape:window-y="27"
     inkscape:window-maximized="1"
     inkscape:current-layer="svg12" />
  <metadata
     id="metadata2">
    <rdf:RDF>
      <cc:Work
         rdf:about="">
        <dc:format>image/svg+xml</dc:format>
        <dc:type
           rdf:resource="http://purl.org/dc/dcmitype/StillImage" />
        <dc:title></dc:title>
      </cc:Work>
    </rdf:RDF>
  </metadata>
  <g
     transform="matrix(0.89681437,0,0,0.89681437,-55.92116,-34.031923)"
     id="g10">
    <ellipse
       cx="388.31"
       cy="154.63"
       rx="50.125999"
       ry="45.867001"
       fill="#ffffff"
       id="ellipse4" />
    <path
       d="m 82.428,194.39 c -2.1343,-0.55196 -4.7537,-1.3515 -5.8208,-1.7767 -6.4769,-2.5809 -10.933,-7.5169 -12.907,-14.297 -0.5436,-1.8669 -0.65179,-4.8639 -0.91695,-25.4 -0.16534,-12.806 -0.38386,-26.183 -0.4856,-29.728 l -0.18497,-6.4444 17.493,0.1888 1.6823,3.3927 -0.37952,19.999 c -0.36724,19.352 -0.29939,22.307 0.63497,27.649 0.70664,4.0404 1.4952,5.4263 3.7438,6.5798 1.5268,0.78317 5.3793,1.1568 7.6615,0.74301 3.9404,-0.71443 5.6774,-1.804 10.118,-6.3467 6.15,-6.2908 6.0669,-6.2943 20.283,0.85082 9.062,4.5546 13.856,6.7464 16.269,7.4372 1.2929,0.37017 2.4643,-0.38443 4.7267,-3.0449 4.1217,-4.8469 6.3606,-6.9669 7.754,-7.3421 2.1021,-0.56604 3.3061,-0.11018 5.5878,2.1156 3.3513,3.2691 4.6449,3.6277 13.728,3.8051 4.1231,0.0805 7.4965,0.20161 7.4965,0.26909 0,0.0675 -0.96064,4.0772 -2.1348,8.9105 l -2.1347,8.7878 -2.681,0.22663 c -7.376,0.62349 -15.092,0.0727 -19.178,-1.369 l -1.4593,-0.51486 -1.8418,1.5735 c -3.9281,3.3559 -8.9923,4.7935 -14.317,4.0644 -3.3904,-0.4642 -7.1998,-1.7241 -16.392,-5.4214 -3.6814,-1.4807 -6.8256,-2.6922 -6.987,-2.6922 -0.1614,0 -1.3168,1.0234 -2.5675,2.2741 -2.5769,2.5769 -6.0044,4.4547 -9.6811,5.3038 -1.2612,0.29128 -2.97,0.68977 -3.7974,0.88554 -0.8274,0.19577 -3.288,0.34873 -5.4681,0.3399 -3.1746,-0.0129 -4.7362,-0.21583 -7.8442,-1.0196 z m 122.77,-0.2096 c -10.539,-2.9914 -15.792,-7.7276 -17.988,-16.217 -0.95918,-3.7093 -1.2282,-11.411 -1.2336,-35.314 l -0.005,-23.319 1.6149,-2.3974 6.8655,-0.10009 c 3.776,-0.055 7.2276,-0.0111 7.6702,0.0977 1.1742,0.28856 2.119,2.1062 2.369,4.5576 0.12044,1.1812 0.0651,11.519 -0.1231,22.974 -0.20712,12.61 -0.21511,21.517 -0.0203,22.578 0.51135,2.7832 2.3878,6.1815 4.0462,7.3276 2.491,1.7216 6.6506,1.8102 10.87,0.23163 4.8026,-1.7969 6.8266,-4.1103 12.708,-14.525 7.2379,-12.817 8.7277,-15.181 10.958,-17.388 5.2566,-5.2023 12.952,-6.7747 20.619,-4.213 2.9818,0.99634 6.8527,3.3012 9.2491,5.5071 4.6402,4.2714 7.2173,10.492 8.0868,19.52 0.59656,6.1937 1.5843,7.53 6.5114,8.8097 4.0467,1.051 8.2672,1.3466 13.261,0.92858 2.5606,-0.21433 5.5981,-0.38969 6.7499,-0.38969 h 2.0942 l -0.21683,0.97014 c -0.11925,0.53357 -1.124,4.542 -2.2329,8.9076 l -2.0161,7.9375 -2.8222,0.28374 c -4.852,0.4878 -17.439,0.0419 -22.358,-0.79212 -2.4016,-0.40714 -4.512,-0.83019 -4.6898,-0.9401 -0.17785,-0.10993 -1.2272,0.54418 -2.3318,1.4536 -3.9853,3.281 -6.9378,4.2119 -12.571,3.9642 -4.7362,-0.20828 -6.6719,-0.79009 -17.391,-5.227 l -7.625,-3.1563 -2.3236,2.2431 c -2.793,2.6964 -3.792,3.2305 -9.9471,5.3184 -4.6759,1.5862 -4.8394,1.6146 -9.152,1.5932 -3.893,-0.0194 -4.8714,-0.15815 -8.6245,-1.2234 z m 60.233,-17.443 c 2.36,-1.8564 2.205,-8.4465 -0.30795,-13.1 -1.9751,-3.6577 -7.2469,-7.7227 -10.015,-7.7227 -1.6546,0 -2.0488,0.55629 -8.1654,11.524 l -1.0164,1.8224 4.154,2.2736 c 4.6724,2.5572 7.2585,3.7464 10.857,4.9922 3.0626,1.0603 3.3949,1.0759 4.4944,0.21108 z m 29.718,-28.139 c -2.2435,-0.80436 -3.7038,-1.8449 -5.2681,-3.754 -2.2123,-2.6998 -2.8178,-4.5214 -2.8288,-8.5095 -0.008,-3.0978 0.10517,-3.7727 0.93233,-5.5374 1.148,-2.449 3.4738,-4.8432 5.9945,-6.1709 1.7341,-0.9133 2.1898,-0.9916 5.7635,-0.99014 3.4146,0.001 4.0924,0.10629 5.6444,0.87353 2.4405,1.2064 4.4998,3.3834 5.9789,6.3204 1.1259,2.2357 1.2531,2.7767 1.2531,5.3293 0,2.5327 -0.13825,3.1324 -1.2737,5.5251 -1.4811,3.121 -3.6789,5.4956 -6.0654,6.5531 -2.3599,1.0457 -7.6903,1.2354 -10.131,0.36038 z m -177.71,-1.8729 c -4.9051,-1.21 -7.7644,-4.9926 -7.7415,-10.241 0.0184,-4.2049 1.5948,-7.0846 4.962,-9.064 1.4896,-0.87566 1.9592,-0.96322 5.1663,-0.96322 3.2091,0 3.6761,0.0872 5.1701,0.96547 3.2206,1.8933 4.884,4.9824 4.884,9.0702 0,2.9386 -0.73472,5.1579 -2.3213,7.0114 -2.2156,2.5884 -6.7866,4.0435 -10.12,3.2213 z m 22.423,0.0155 c -3.0156,-0.62951 -5.6489,-2.7072 -7.0433,-5.5573 -0.82571,-1.6877 -0.98632,-2.4608 -0.97022,-4.6704 0.0321,-4.4105 1.8171,-7.3305 5.6281,-9.2066 2.1169,-1.0422 2.4589,-1.1051 5.2161,-0.96042 2.3886,0.12537 3.2586,0.33539 4.5678,1.1026 3.2445,1.9014 4.8442,4.894 4.8442,9.0624 0,3.0075 -0.76334,5.21 -2.4826,7.1632 -2.2293,2.5326 -6.2564,3.7979 -9.76,3.0665 z m 22.225,10e-4 c -4.4828,-0.9389 -7.4803,-4.5436 -7.7899,-9.3678 -0.29869,-4.6542 1.5444,-8.1448 5.2885,-10.016 2.8471,-1.4227 6.5464,-1.5215 9.276,-0.24772 1.9799,0.92396 4.0954,3.074 4.9894,5.0711 0.94328,2.107 0.83879,6.8762 -0.19734,9.0076 -2.0227,4.1608 -6.9404,6.5215 -11.567,5.5526 z"
       fill="#ffffff"
       stroke-width="0.35278"
       id="path6" />
    <path
       d="m 372.94,210.94 c -17.455,-1.5635 -32.985,-13.937 -38.434,-30.623 -2.1053,-6.4463 -2.2927,-8.5536 -2.2956,-25.807 -0.002,-10.862 0.13573,-16.653 0.44632,-18.796 1.8284,-12.617 9.1492,-24.01 19.999,-31.125 5.6284,-3.6906 10.299,-5.4573 17.792,-6.7297 2.8007,-0.4756 5.174,-0.94655 5.274,-1.0465 0.1,-0.1 -1.5386,-1.9076 -3.6414,-4.0169 -3.6981,-3.7096 -3.8288,-3.8937 -3.9951,-5.624 -0.16113,-1.677 -0.0941,-1.8666 1.0716,-3.0324 1.0502,-1.0502 1.4875,-1.2435 2.8133,-1.2435 2.1366,0 3.1233,0.7786 10.215,8.06 4.2578,4.3718 6.1186,6.0511 6.705,6.0511 0.5947,0 3.6396,-2.8387 11.393,-10.621 11.05,-11.091 12.492,-12.252 14.641,-11.78 0.56437,0.12396 1.509,0.77538 2.0993,1.4476 0.86487,0.98505 1.0731,1.5389 1.0731,2.8543 v 1.6321 l -7.969,8.0396 c -4.383,4.4218 -7.8799,8.1839 -7.7709,8.3602 0.10897,0.17632 1.3584,0.42573 2.7766,0.55424 6.895,0.62481 14.59,3.4123 20.901,7.571 3.23,2.1286 8.2291,6.9374 10.81,10.399 3.9929,5.3544 7.0431,12.559 8.2308,19.44 0.73943,4.2842 1.062,20.866 0.59758,30.718 -0.30308,6.4294 -0.52631,8.3878 -1.3011,11.413 -4.2986,16.787 -17.541,29.574 -34.213,33.034 -1.5522,0.32218 -5.2035,0.72705 -8.1139,0.89972 -6.2654,0.3717 -24.833,0.35262 -29.104,-0.0299 z m 33.704,-21.33 c 6.3966,-1.6121 12.77,-6.7182 15.631,-12.523 2.3992,-4.8684 2.5716,-6.1741 2.7761,-21.027 0.19561,-14.209 -0.0353,-17.594 -1.4842,-21.778 -1.2509,-3.6114 -2.8658,-6.0943 -6.0388,-9.2846 -2.2831,-2.2956 -3.4583,-3.1633 -5.8208,-4.2982 -5.1583,-2.4779 -6.6394,-2.6507 -22.716,-2.6507 -16.124,0 -17.633,0.17623 -22.754,2.6575 -2.4276,1.1762 -3.5729,2.0305 -6.0147,4.4866 -3.3184,3.3379 -4.9746,6.0907 -6.3884,10.619 -0.81375,2.6061 -0.82615,2.8789 -0.82615,18.168 0,17.458 -0.006,17.406 2.5459,22.737 1.3466,2.8134 2.0715,3.8097 4.6403,6.3779 2.4347,2.4341 3.6449,3.338 6.043,4.5133 5.0771,2.4882 5.0246,2.4824 22.592,2.5084 12.866,0.019 16.094,-0.0728 17.815,-0.50668 z m -30.457,-16.42 c -1.797,-0.7212 -1.8643,-1.4688 -1.7582,-19.547 l 0.0981,-16.716 0.85524,-0.9101 c 1.768,-1.8815 2.238,-1.6911 17.421,7.0556 7.6048,4.3811 14.263,8.4318 14.797,9.0014 0.60785,0.64893 0.97014,1.4268 0.97014,2.0829 0,0.65061 -0.3674,1.4481 -0.97014,2.1057 -0.87526,0.95496 -24.72,15.049 -28.134,16.628 -1.5693,0.7263 -2.0948,0.77424 -3.2789,0.29903 z"
       fill="#e81b31"
       stroke-width="0.35278"
       id="path8" />
  </g>
</svg>
