<?xml version="1.0" encoding="UTF-8" standalone="no"?>
<svg
   xmlns:dc="http://purl.org/dc/elements/1.1/"
   xmlns:cc="http://creativecommons.org/ns#"
   xmlns:rdf="http://www.w3.org/1999/02/22-rdf-syntax-ns#"
   xmlns:svg="http://www.w3.org/2000/svg"
   xmlns="http://www.w3.org/2000/svg"
   xmlns:sodipodi="http://sodipodi.sourceforge.net/DTD/sodipodi-0.dtd"
   xmlns:inkscape="http://www.inkscape.org/namespaces/inkscape"
   width="512"
   height="512"
   version="1.1"
   viewBox="0 0 135.46667 135.46667"
   id="svg12"
   sodipodi:docname="namasha.svg"
   inkscape:version="1.0.2 (1.0.2+r75+1)">
  <defs
     id="defs16" />
  <sodipodi:namedview
     pagecolor="#404040"
     bordercolor="#666666"
     borderopacity="1"
     objecttolerance="10"
     gridtolerance="10"
     guidetolerance="10"
     inkscape:pageopacity="0"
     inkscape:pageshadow="2"
     inkscape:window-width="1024"
     inkscape:window-height="704"
     id="namedview14"
     showgrid="false"
     inkscape:snap-page="true"
     inkscape:snap-bbox="true"
     inkscape:bbox-paths="true"
     inkscape:bbox-nodes="true"
     inkscape:snap-bbox-edge-midpoints="true"
     inkscape:snap-bbox-midpoints="true"
     inkscape:object-paths="true"
     inkscape:snap-intersection-paths="true"
     inkscape:snap-smooth-nodes="true"
     inkscape:snap-midpoints="true"
     inkscape:zoom="0.90520832"
     inkscape:cx="396.32047"
     inkscape:cy="320.43244"
     inkscape:window-x="0"
     inkscape:window-y="27"
     inkscape:window-maximized="1"
     inkscape:current-layer="svg12"
     inkscape:document-rotation="0" />
  <metadata
     id="metadata2">
    <rdf:RDF>
      <cc:Work
         rdf:about="">
        <dc:format>image/svg+xml</dc:format>
        <dc:type
           rdf:resource="http://purl.org/dc/dcmitype/StillImage" />
        <dc:title></dc:title>
      </cc:Work>
    </rdf:RDF>
  </metadata>
  <g
     id="g15"
     transform="translate(-225.25077,-26.37053)">
    <ellipse
       cx="292.32083"
       cy="104.64249"
       rx="44.953716"
       ry="41.134186"
       fill="#ffffff"
       id="ellipse4"
       style="stroke-width:0.896814" />
    <path
       d="m 278.53679,155.1421 c -15.65389,-1.40217 -29.58142,-12.4989 -34.46816,-27.46315 -1.88807,-5.78113 -2.05613,-7.67099 -2.05873,-23.14408 -0.002,-9.741202 0.12173,-14.934654 0.40027,-16.856528 1.63973,-11.315106 8.20513,-21.532513 17.93539,-27.913347 5.04763,-3.309783 9.23629,-4.894185 15.95612,-6.035292 2.51171,-0.426524 4.64012,-0.848879 4.7298,-0.938516 0.0897,-0.08968 -1.37984,-1.710763 -3.26566,-3.602413 -3.31651,-3.326823 -3.43373,-3.491927 -3.58287,-5.043684 -0.1445,-1.503958 -0.0844,-1.673994 0.96103,-2.7195 0.94184,-0.941835 1.33401,-1.115189 2.52301,-1.115189 1.91613,0 2.80102,0.69826 9.16096,7.228324 3.81845,3.920693 5.48725,5.426713 6.01314,5.426713 0.53333,0 3.26404,-2.545787 10.2174,-9.525065 9.9098,-9.946568 11.20301,-10.98777 13.13026,-10.564473 0.50614,0.111169 1.3533,0.695371 1.88269,1.298228 0.77562,0.883407 0.96237,1.380108 0.96237,2.559777 v 1.463691 l -7.14672,7.210029 c -3.93073,3.965534 -7.0668,7.339439 -6.96905,7.497547 0.0977,0.158127 1.21823,0.381801 2.49009,0.497051 6.18354,0.560338 13.08453,3.060199 18.74432,6.789781 2.89671,1.908959 7.37998,6.22156 9.69456,9.325973 3.58089,4.801903 6.31636,11.263092 7.3815,17.434071 0.66314,3.842132 0.95242,18.712932 0.53592,27.548342 -0.2718,5.76598 -0.472,7.5223 -1.16684,10.23534 -3.85505,15.05483 -15.73102,26.52239 -30.68271,29.62537 -1.39204,0.28894 -4.66658,0.65203 -7.27667,0.80688 -5.6189,0.33335 -22.27059,0.31624 -26.10088,-0.0268 z m 30.22623,-19.12905 c 5.73657,-1.44575 11.45232,-6.02498 14.01811,-11.23081 2.15164,-4.36605 2.30625,-5.53702 2.48964,-18.85731 0.17543,-12.742838 -0.0317,-15.778554 -1.33105,-19.530826 -1.12182,-3.238755 -2.57009,-5.465456 -5.41568,-8.326562 -2.04752,-2.058728 -3.10145,-2.836893 -5.22018,-3.854688 -4.62603,-2.222216 -5.95431,-2.377186 -20.37203,-2.377186 -14.46024,0 -15.81353,0.158046 -20.40612,2.383284 -2.1771,1.054833 -3.20422,1.820982 -5.39407,4.023648 -2.97598,2.993476 -4.46129,5.462227 -5.7292,9.523271 -0.72979,2.337188 -0.74091,2.581839 -0.74091,16.293319 0,15.65659 -0.005,15.60996 2.2832,20.39087 1.20765,2.5231 1.85775,3.4166 4.16149,5.7198 2.18347,2.18293 3.2688,2.99356 5.41945,4.04759 4.55321,2.23145 4.50613,2.22625 20.26083,2.24957 11.53841,0.017 14.43333,-0.0653 15.97675,-0.4544 z m -27.31427,-14.72569 c -1.61158,-0.64678 -1.67193,-1.31724 -1.57678,-17.53003 l 0.088,-14.991152 0.76699,-0.816191 c 1.58557,-1.687356 2.00707,-1.516602 15.6234,6.327564 6.82009,3.929033 12.79126,7.561759 13.27016,8.072589 0.54513,0.58197 0.87004,1.27957 0.87004,1.86797 0,0.58348 -0.32949,1.29868 -0.87004,1.88842 -0.78494,0.85642 -22.16925,13.49616 -25.23097,14.91223 -1.40737,0.65136 -1.87865,0.69435 -2.94057,0.26818 z"
       fill="#e81b31"
       stroke-width="0.316378"
       id="path8" />
  </g>
</svg>
