<?xml version="1.0" encoding="UTF-8"?>
<svg width="1080" height="1080" version="1.1" viewBox="0 0 285.75 285.75" xmlns="http://www.w3.org/2000/svg" xmlns:cc="http://creativecommons.org/ns#" xmlns:dc="http://purl.org/dc/elements/1.1/" xmlns:rdf="http://www.w3.org/1999/02/22-rdf-syntax-ns#">
 <metadata>
  <rdf:RDF>
   <cc:Work rdf:about="">
    <dc:format>image/svg+xml</dc:format>
    <dc:type rdf:resource="http://purl.org/dc/dcmitype/StillImage"/>
    <dc:title/>
   </cc:Work>
  </rdf:RDF>
 </metadata>
 <g transform="translate(-.078248 .026256)">
  <rect x="26.353" y="45.127" width="197.77" height="190.6" fill="#fff" stroke-linecap="round" stroke-linejoin="round" stroke-width="13.229"/>
  <g stroke-width=".43266">
   <path d="m259.08 258.57c-9.9575-3.5952-13.857-15.27-7.9719-23.866 3.1498-4.6011 7.6456-6.7615 13.562-6.5173 6.3508 0.26215 10.863 3.237 13.559 8.9391 1.2033 2.5452 1.3597 3.3095 1.3423 6.5585-0.0153 3.0276-0.22076 4.1149-1.1567 6.1516-1.5897 3.4591-4.5274 6.4521-7.8023 7.9491-3.3497 1.5313-8.4957 1.8816-11.533 0.78512zm11.193-2.4785c10.478-5.1617 10.272-20.119-0.34902-25.249-2.032-0.98161-3.0219-1.1797-5.9027-1.181-4.1505-2e-3 -6.51 0.91241-9.525 3.6917-5.5944 5.1567-6.0869 13.837-1.1062 19.496 3.0061 3.4152 7.6062 5.2342 12.146 4.8028 1.0708-0.10169 3.2025-0.80356 4.7372-1.5595zm-11.66-12.407v-8.2205h4.3481c5.1546 0 6.5864 0.54801 7.3317 2.8062 0.92438 2.801-0.42056 5.3727-3.1477 6.0179l-1.2027 0.28464 1.2469 1.8273c0.68578 1.005 1.7649 2.6548 2.3979 3.6661l1.151 1.8388-1.1953-0.0102c-1.027-5e-3 -1.5193-0.52481-3.498-3.6776-2.1604-3.4421-2.3946-3.6691-3.7858-3.6691h-1.483v3.6776c0 3.6343-0.0102 3.6776-1.0816 3.6776h-1.0817zm8.5569-1.5388c0.71475-0.5008 0.96162-1.1076 0.96162-2.3644 0-2.1493-0.7633-2.5866-4.5145-2.5866h-2.8407v5.6246h2.716c1.7579 0 3.0552-0.23762 3.6776-0.67351zm-249.33 14.78c-3.9361-1.249-7.0063-3.6066-9.2502-7.1034-2.8314-4.4123-2.6479 3.0556-2.6479-107.81 0-89.489 0.074097-100.91 0.67055-103.2 1.2436-4.7746 4.6416-8.8105 9.2286-10.961l2.4316-1.1401h206.81l2.4316 1.1401c4.5871 2.1509 7.985 6.1868 9.2286 10.961 0.59636 2.2894 0.67055 13.713 0.67055 103.2 0 89.489-0.0741 100.91-0.67055 103.2-1.2436 4.7746-4.6416 8.8105-9.2286 10.961l-2.4316 1.1401-102.76 0.0813c-82.02 0.0649-103.11-0.0307-104.49-0.46809zm56.895-88.524v-55.38h-34.613v110.76h34.613zm55.814 25.635c8.7e-4 -18.621 0.1763-31.202 0.46911-33.639 0.93081-7.7486 3.7119-13.538 7.8715-16.385 3.7884-2.5936 5.4626-3.0283 11.777-3.0578 5.3179-0.0256 5.7722 0.0409 8.3338 1.2248 4.2803 1.9768 7.0286 5.6757 8.6277 11.612 0.64536 2.3958 0.75865 6.6265 0.97037 36.243l0.23966 33.531 34.396 0.22587v-34.759c0-21.368-0.17783-36.58-0.46145-39.485-1.3787-14.125-4.823-22.882-11.674-29.68-5.7945-5.7496-13.05-8.5575-24.506-9.484-15.348-1.2412-27.377 3.8567-35.224 14.928l-2.1182 2.9883v-15.279h-33.315v110.76h34.613l1e-3 -29.745zm-66.965-97.057c5.4784-1.8455 9.3042-5.2772 11.901-10.675 3.5435-7.3658 1.9159-16.455-4.0072-22.378-4.2079-4.2079-9.4324-6.1281-15.623-5.7418-7.1585 0.44662-13.288 4.6945-16.484 11.423-3.3995 7.1584-2.1425 15.824 3.1492 21.709 3.9221 4.3623 8.7618 6.4981 14.814 6.5374 2.5332 0.01533 4.3646-0.24018 6.2502-0.87521z" fill="#2766b1"/>
   <path d="m247.89 243.69c0-0.83285 0.0889-1.1735 0.19776-0.75711 0.10885 0.41647 0.10885 1.0979 0 1.5143-0.10885 0.41648-0.19776 0.0756-0.19776-0.75717zm2.1633 0c0-0.83285 0.0889-1.1735 0.19776-0.75711 0.10885 0.41647 0.10885 1.0979 0 1.5143-0.10884 0.41648-0.19776 0.0756-0.19776-0.75717zm27.658 0c0-0.59487 0.0981-0.83826 0.2182-0.5408 0.12009 0.29741 0.12009 0.7842 0 1.0817-0.12009 0.29741-0.2182 0.0542-0.2182-0.54086zm2.1633 0c0-0.59487 0.0981-0.83826 0.2182-0.5408 0.12009 0.29741 0.12009 0.7842 0 1.0817-0.12009 0.29741-0.2182 0.0542-0.2182-0.54086zm-18.132-1.1752c0.65441-0.0991 1.7252-0.0991 2.3796 0s0.11907 0.18038-1.1898 0.18038c-1.3088 0-1.8442-0.0813-1.1898-0.18038zm-256.03-100.5c0-55.326 0.051101-77.96 0.11191-50.296 0.061322 27.663 0.061322 72.93 0 100.59-0.061322 27.663-0.11191 5.0296-0.11191-50.296zm231.9 0c0-55.326 0.0511-77.96 0.11191-50.296 0.0613 27.663 0.0613 72.93 0 100.59-0.0613 27.663-0.11191 5.0296-0.11191-50.296zm31.749 94.428c-0.5382-0.68624-0.52287-0.70152 0.16352-0.16353 0.72074 0.56523 0.94993 0.92049 0.5938 0.92049-0.0899 0-0.43027-0.34085-0.75712-0.75712zm-17.035-4.0021c0.43079-0.47575 0.88048-0.8653 0.99944-0.8653 0.11907 0-0.13593 0.3894-0.56676 0.8653-0.43079 0.47576-0.88048 0.8653-0.99944 0.8653-0.11907 0 0.13593-0.38939 0.56676-0.8653zm22.659-0.32449c-0.53815-0.68624-0.52287-0.70152 0.16352-0.16353 0.41648 0.32654 0.75717 0.66734 0.75717 0.75717 0 0.35618-0.35515 0.12673-0.92054-0.59379zm-234.66-63.817 0.0025-55.056 33.964-0.01-33.744 0.2412-0.11242 54.943-0.11242 54.943 0.0025-55.056zm89.984 25.635c0-16.3 0.0542-22.969 0.11957-14.819 0.0659 8.1502 0.0659 21.487 0 29.637s-0.11957 1.4818-0.11957-14.819zm72.681 9.9511c0-10.827 0.0562-15.257 0.12469-9.843 0.0685 5.4137 0.0685 14.272 0 19.686-0.0685 5.4136-0.12469 0.98427-0.12469-9.843zm-34.345-43.086c0.0204-0.50386 0.12315-0.60652 0.26163-0.26164 0.1252 0.31223 0.10936 0.68547-0.0358 0.82927-0.14359 0.1436-0.24631-0.11191-0.2274-0.56789zm34.28-1.6946c3e-3 -1.4278 0.0833-1.9597 0.17937-1.1821 0.0961 0.77766 0.0945 1.9458-4e-3 2.596-0.0986 0.65016-0.17732 0.0153-0.17527-1.4139zm-66.763-13.359c0-0.0899 0.34085-0.43079 0.75717-0.75717 0.68624-0.53815 0.70152-0.52287 0.16352 0.16352-0.56523 0.72068-0.92054 0.94987-0.92054 0.5938zm-31.664-32.61c4.5965-0.07 11.995-0.07 16.441 2e-4 4.4461 0.0705 0.68537 0.12775-8.3572 0.12775-9.0425-1.5e-4 -12.68-0.0577-8.0839-0.12775zm-27.493-35.154c0-1.0708 0.08432-1.5089 0.18754-0.97348 0.10322 0.53544 0.10322 1.4116 0 1.947-0.10322 0.53544-0.18754 0.0976-0.18754-0.97348zm-20.561-19.775c0.53539-0.10322 1.4115-0.10322 1.947 0 0.53539 0.10322 0.0976 0.18754-0.97348 0.18754-1.0708 0-1.5089-0.08432-0.97348-0.18754z" fill="#c9d9eb"/>
   <path d="m273.5 233.63-0.82416-0.97348 0.97348 0.82422c0.53539 0.45327 0.97348 0.89141 0.97348 0.97348 0 0.34647-0.348 0.0905-1.1228-0.82422zm-82.205-113.36-0.82422-0.97348 0.97348 0.82422c0.53539 0.45326 0.97348 0.89136 0.97348 0.97348 0 0.34595-0.348 0.0905-1.1227-0.82422z" fill="#b2c8e2"/>
   <path d="m263.27 259.39c0.5382-0.10374 1.317-0.0996 1.7306 0.0102 0.41392 0.10833-0.0256 0.19316-0.97854 0.18805-0.95181-5e-3 -1.2903-0.0935-0.75211-0.19674zm-4.1071-7.349c0.42108-0.10986 1.0051-0.1022 1.298 0.0153 0.29281 0.11856-0.0516 0.2085-0.76535 0.1993-0.71388-0.0102-0.95355-0.10578-0.53263-0.21565zm9.9512 0c0.42108-0.10986 1.005-0.1022 1.298 0.0153 0.29281 0.11856-0.0516 0.2085-0.7654 0.1993-0.71389-0.0102-0.95355-0.10578-0.53258-0.21565zm-7.5747-7.3614c0.53815-0.10373 1.3169-0.0997 1.7306 0.0102 0.41392 0.10834-0.0256 0.19316-0.97849 0.18805-0.95186-5e-3 -1.2903-0.0935-0.75211-0.19674zm2.1852-15.133c0.31223-0.12519 0.68552-0.10986 0.82927 0.0358 0.1436 0.14359-0.11191 0.24579-0.56784 0.2274-0.50386-0.0204-0.60657-0.12316-0.26164-0.26113zm-189.21-61.142c0-30.34 0.05161-42.752 0.11447-27.582 0.06285 15.17 0.06285 39.994 0 55.164-0.06285 15.17-0.11447 2.7582-0.11447-27.582zm21.633 0c0-30.34 0.05161-42.752 0.11447-27.582 0.06285 15.17 0.06285 39.994 0 55.164-0.06286 15.17-0.11447 2.7582-0.11447-27.582zm72.577-5.6245c0-0.8329 0.0889-1.1736 0.19776-0.75717 0.10885 0.41648 0.10885 1.0979 0 1.5143-0.10884 0.41647-0.19776 0.0756-0.19776-0.75712zm34.164-7.5715c0.0102-0.71389 0.10578-0.95355 0.21565-0.53258 0.10987 0.42107 0.10271 1.0051-0.0153 1.298-0.11856 0.29281-0.20849-0.0516-0.1993-0.76539zm-0.48291-6.0933c0.0204-0.50385 0.12316-0.60652 0.26113-0.26163 0.1252 0.31222 0.10987 0.68547-0.0358 0.82927-0.14359 0.14359-0.2458-0.11191-0.2274-0.56789zm-53.567-8.7006c0.42108-0.10987 1.0051-0.1022 1.298 0.0153 0.29281 0.11855-0.0516 0.20798-0.76535 0.19929-0.71388-0.0102-0.95355-0.10577-0.53263-0.21564zm3.2367 0.0153c0.29741-0.12009 0.7842-0.12009 1.0817 0 0.29741 0.12009 0.0542 0.2182-0.5408 0.2182-0.59493 0-0.83832-0.0981-0.54086-0.2182zm-23.077-19.616c0-4.1644 0.0649-5.8679 0.1441-3.7857 0.0792 2.0822 0.0792 5.4894 0 7.5715-0.0792 2.0822-0.1441 0.37866-0.1441-3.7857zm-108.42-94.617c0.31223-0.1252 0.68547-0.10987 0.82927 0.03577 0.1436 0.1436-0.11191 0.2458-0.56789 0.2274-0.50386-0.02044-0.60652-0.12315-0.26113-0.26113z" fill="#93b2d7"/>
   <path d="m71.127 257.64c27.644-0.0613 73.008-0.0613 100.81 0s5.1833 0.11191-50.262 0.11191c-55.445 0-78.191-0.0511-50.548-0.11191zm182.69-4.3266-1.0489-1.1898 1.1898 1.0489c0.65441 0.57693 1.1898 1.1123 1.1898 1.1898 0 0.33932-0.35055 0.0634-1.3307-1.0489zm19.719 0.32449c0.43079-0.47575 0.88043-0.86535 0.99944-0.86535 0.11907 0-0.13593 0.38939-0.56676 0.86535-0.43079 0.47575-0.88048 0.8653-0.99944 0.8653-0.11907 0 0.13593-0.38939 0.56676-0.8653zm-262.89-0.75717c-0.53815-0.68624-0.52287-0.70152 0.16352-0.16352 0.41648 0.32653 0.75712 0.66733 0.75712 0.75717 0 0.35617-0.35515 0.12673-0.92049-0.5938zm221.14 0.5938c0-0.0899 0.34085-0.43079 0.75712-0.75717 0.68624-0.53815 0.70152-0.52287 0.16353 0.16352-0.56524 0.72069-0.92049 0.94988-0.92049 0.5938zm26.594-10.004 0.0153-8.2205 7.7878-0.0614-7.553 0.30661-0.13133 8.0956-0.13133 8.0956 0.0153-8.2205zm4.0431-13.924c0.31223-0.12519 0.68553-0.10986 0.82928 0.0358 0.14359 0.14359-0.11192 0.24579-0.56784 0.2274-0.50386-0.0204-0.60657-0.12316-0.26164-0.26113zm2.596 0c0.31223-0.12519 0.68553-0.10986 0.82927 0.0358 0.1436 0.14359-0.11191 0.24579-0.56783 0.2274-0.50386-0.0204-0.60658-0.12316-0.26164-0.26113zm-1.968-1.7455c0.65762-0.0996 1.6311-0.0966 2.1633 5e-3 0.53212 0.10271-5e-3 0.18396-1.1958 0.18089-1.1898-3e-3 -1.6252-0.0874-0.9675-0.18652zm-214.17-4.3401c4.6997-0.07 12.39-0.07 17.09 0 4.6997 0.07 0.85447 0.12724-8.545 0.12724-9.3995 0-13.245-0.0572-8.545-0.12724zm55.813 0c4.6997-0.07 12.39-0.07 17.09 0 4.6997 0.07 0.85446 0.12724-8.545 0.12724-9.3995 0-13.245-0.0572-8.545-0.12724zm64.124-0.21667c-0.11344-0.29741-0.15483-13.78-0.0915-29.962l0.11498-29.421 0.10527 29.74 0.10527 29.74 33.964 0.23711-16.995 0.10323c-13.274 0.0802-17.041-0.0153-17.202-0.43794zm34.049-69.982c0-0.59492 0.0981-0.83827 0.2182-0.54081 0.12009 0.29741 0.12009 0.78421 0 1.0816s-0.2182 0.0542-0.2182-0.54081zm-52.068-12.843c0.31223-0.1252 0.68552-0.10936 0.82927 0.0358 0.1436 0.14359-0.11191 0.24579-0.56784 0.2274-0.50385-0.0204-0.60657-0.12316-0.26163-0.26164zm-15.062-20.203c0-0.0899 0.34084-0.43079 0.75711-0.75717 0.68624-0.53815 0.70152-0.52287 0.16353 0.16352-0.56523 0.72069-0.92049 0.94988-0.92049 0.5938zm24.111-10.1c0.7681-0.0956 2.131-0.0971 3.0286-3e-3 0.89765 0.0935 0.2693 0.1717-1.3965 0.17374-1.6657 2e-3 -2.4002-0.0746-1.6321-0.17017zm-116.73-18.184-1.0489-1.1898 1.1898 1.0489c1.112 0.98033 1.3882 1.3307 1.0489 1.3307-0.07767 0-0.61296-0.53539-1.1898-1.1898zm28.156 0.10834c0.5589-0.59492 1.1135-1.0817 1.2325-1.0817 0.11907 0-0.24069 0.48648-0.79984 1.0817-0.5589 0.59487-1.1135 1.0816-1.2325 1.0816-0.11907 0 0.24069-0.48648 0.79979-1.0816zm-28.555-27.637c0-0.08994 0.34085-0.43078 0.75717-0.75717 0.68624-0.53815 0.70152-0.52287 0.16352 0.16352-0.56523 0.72068-0.92054 0.94987-0.92054 0.5938zm189.68-33.26-0.82422-0.97348 0.97348 0.82421c0.53544 0.45327 0.97348 0.89141 0.97348 0.97348 0 0.34647-0.348 0.09045-1.1227-0.82421zm-222.13 0.37764c0-0.08994 0.34085-0.43078 0.75717-0.75717 0.68624-0.53815 0.70152-0.52287 0.16352 0.16352-0.56523 0.72068-0.92054 0.94987-0.92054 0.5938zm61.329-5.353c27.663-0.06132 72.93-0.06132 100.59 0 27.663 0.06132 5.0296 0.11191-50.296 0.11191-55.326 0-77.96-0.0511-50.296-0.11191z" fill="#5f8ec4"/>
   <path d="m252.5 254.61c-0.5382-0.68624-0.52287-0.70152 0.16352-0.16352 0.41648 0.32653 0.75717 0.66733 0.75717 0.75716 0 0.35618-0.35515 0.12674-0.92049-0.59379zm-181.26-190.8-1.0489-1.1898 1.1898 1.0489c0.6544 0.57688 1.1898 1.1123 1.1898 1.1898 0 0.33931-0.35056 0.06285-1.3307-1.0489z" fill="#4f82bf"/>
  </g>
 </g>
</svg>
