<?xml version="1.0" encoding="UTF-8"?>
<svg width="1280" height="720" version="1.1" viewBox="0 0 338.67 190.5" xmlns="http://www.w3.org/2000/svg" xmlns:cc="http://creativecommons.org/ns#" xmlns:dc="http://purl.org/dc/elements/1.1/" xmlns:rdf="http://www.w3.org/1999/02/22-rdf-syntax-ns#">
 <defs>
  <filter id="filter1873" x="-.013553" y="-.010766" width="1.0271" height="1.0215" color-interpolation-filters="sRGB">
   <feGaussianBlur stdDeviation="0.34005569"/>
  </filter>
 </defs>
 <metadata>
  <rdf:RDF>
   <cc:Work rdf:about="">
    <dc:format>image/svg+xml</dc:format>
    <dc:type rdf:resource="http://purl.org/dc/dcmitype/StillImage"/>
    <dc:title/>
   </cc:Work>
  </rdf:RDF>
 </metadata>
 <g transform="matrix(.76651 0 0 .76651 -37.885 .9459)">
  <g transform="matrix(3.6081 0 0 3.6081 52.257 -804.25)" shape-rendering="auto" stroke-width=".27715">
   <path d="m35.626 235.66c3.4254-4.963 8.5632-8.7818 14.845-10.465 6.2822-1.6833 12.641-0.94499 18.089 1.6404-4.3203-1.266-10.793-1.0054-17.442 0.77599-6.6482 1.7814-12.384 4.7922-15.493 8.0487z" color="#000000" color-rendering="auto" dominant-baseline="auto" fill="#0c4013" image-rendering="auto" solid-color="#000000" stop-color="#000000" style="font-feature-settings:normal;font-variant-alternates:normal;font-variant-caps:normal;font-variant-east-asian:normal;font-variant-ligatures:normal;font-variant-numeric:normal;font-variant-position:normal;font-variation-settings:normal;inline-size:0;isolation:auto;mix-blend-mode:normal;shape-margin:0;shape-padding:0;text-decoration-color:#000000;text-decoration-line:none;text-decoration-style:solid;text-indent:0;text-orientation:mixed;text-transform:none;white-space:normal"/>
   <path d="m33.515 261.94c-0.67725-1.4258-1.2362-2.9323-1.6593-4.5116-0.57717-2.154-0.86879-4.3171-0.89997-6.4495l0.0073 1.2e-4c-0.03829-2.7826 2.3013-5.9193 6.2656-8.7782 3.9643-2.859 9.5351-5.438 15.889-7.1404s12.468-2.2543 17.33-1.7605c4.8626 0.49377 8.4571 2.0404 9.8152 4.4694l0.0062-4e-3c1.0392 1.8623 1.8682 3.8814 2.4454 6.0354 0.42317 1.5793 0.6924 3.1634 0.81876 4.7368-0.566-1.4223-1.82-2.6085-3.6334-3.4931-2.5004-1.2197-6.0653-1.8882-10.408-1.8742-8.6857 0.0281-18.963 2.7819-26.499 7.1004-3.7681 2.1592-6.5211 4.5207-8.0766 6.8271-1.1281 1.6728-1.6211 3.327-1.4001 4.8418z" color="#000000" color-rendering="auto" dominant-baseline="auto" fill="#999" image-rendering="auto" solid-color="#000000" stop-color="#000000" style="font-feature-settings:normal;font-variant-alternates:normal;font-variant-caps:normal;font-variant-east-asian:normal;font-variant-ligatures:normal;font-variant-numeric:normal;font-variant-position:normal;font-variation-settings:normal;inline-size:0;isolation:auto;mix-blend-mode:normal;shape-margin:0;shape-padding:0;text-decoration-color:#000000;text-decoration-line:none;text-decoration-style:solid;text-indent:0;text-orientation:mixed;text-transform:none;white-space:normal"/>
   <path d="m54.867 276.84c-4.0599-0.37459-7.9392-1.6901-11.349-3.7808-0.0049-3e-3 -0.0079-6e-3 -0.01261-8e-3 -1.046-0.64476-1.7276-1.4088-2.0684-2.2545-0.34222-0.84923-0.34642-1.7844-0.0192-2.7811 0.65441-1.9935 2.6541-4.2198 5.9061-6.3183 6.5038-4.1969 16.394-6.847 24.125-6.4643 3.8655 0.19134 6.7105 1.1196 8.274 2.5188 0.78173 0.69959 1.2457 1.5115 1.3739 2.4181 0.12521 0.8852-0.07248 1.8663-0.6301 2.9235-1.9095 3.5471-4.6255 6.6539-7.9782 9.0253 0.12803-0.12168 0.25183-0.24376 0.36626-0.36617 0.62237-0.66575 1.0416-1.339 1.2197-1.9971 0.17809-0.65804 0.10895-1.3031-0.2427-1.8722-0.7033-1.1382-2.3728-1.7998-4.5534-2.007-2.1806-0.20719-4.8865 0.0473-7.692 0.79903-2.8056 0.75172-5.2741 1.8837-7.059 3.1535-1.785 1.2698-2.9019 2.678-2.9419 4.0154-0.02 0.66868 0.24266 1.2619 0.72589 1.7427 0.48324 0.48084 1.1829 0.8543 2.0548 1.1197 0.1603 0.0488 0.32855 0.0926 0.50027 0.13398z" color="#000000" color-rendering="auto" dominant-baseline="auto" fill="#570000" image-rendering="auto" solid-color="#000000" stop-color="#000000" style="font-feature-settings:normal;font-variant-alternates:normal;font-variant-caps:normal;font-variant-east-asian:normal;font-variant-ligatures:normal;font-variant-numeric:normal;font-variant-position:normal;font-variation-settings:normal;inline-size:0;isolation:auto;mix-blend-mode:normal;shape-margin:0;shape-padding:0;text-decoration-color:#000000;text-decoration-line:none;text-decoration-style:solid;text-indent:0;text-orientation:mixed;text-transform:none;white-space:normal"/>
  </g>
  <g fill="#d5d5d5">
   <g shape-rendering="auto">
    <path d="m291.43 76.775a7.7193 7.7193 0 0 0-7.7207 7.7188v96.088a7.7193 7.7193 0 0 0 7.7207 7.7188 7.7193 7.7193 0 0 0 7.7188-7.7188v-96.088a7.7193 7.7193 0 0 0-7.7188-7.7188z" color="#000000" color-rendering="auto" dominant-baseline="auto" image-rendering="auto" solid-color="#000000" stop-color="#000000" style="font-feature-settings:normal;font-variant-alternates:normal;font-variant-caps:normal;font-variant-east-asian:normal;font-variant-ligatures:normal;font-variant-numeric:normal;font-variant-position:normal;font-variation-settings:normal;inline-size:0;isolation:auto;mix-blend-mode:normal;shape-margin:0;shape-padding:0;text-decoration-color:#000000;text-decoration-line:none;text-decoration-style:solid;text-indent:0;text-orientation:mixed;text-transform:none;white-space:normal"/>
    <path d="m262.02 102.69a7.7193 7.7193 0 0 0-7.7187 7.7188v70.176a7.7193 7.7193 0 0 0 7.7187 7.7188 7.7193 7.7193 0 0 0 7.7188-7.7188v-70.176a7.7193 7.7193 0 0 0-7.7188-7.7188z" color="#000000" color-rendering="auto" dominant-baseline="auto" image-rendering="auto" solid-color="#000000" stop-color="#000000" style="font-feature-settings:normal;font-variant-alternates:normal;font-variant-caps:normal;font-variant-east-asian:normal;font-variant-ligatures:normal;font-variant-numeric:normal;font-variant-position:normal;font-variation-settings:normal;inline-size:0;isolation:auto;mix-blend-mode:normal;shape-margin:0;shape-padding:0;text-decoration-color:#000000;text-decoration-line:none;text-decoration-style:solid;text-indent:0;text-orientation:mixed;text-transform:none;white-space:normal"/>
    <path d="m233.97 119.77a7.7193 7.7193 0 0 0-7.7188 7.7188v53.096a7.7193 7.7193 0 0 0 7.7188 7.7188 7.7193 7.7193 0 0 0 7.7188-7.7188v-53.096a7.7193 7.7193 0 0 0-7.7188-7.7188z" color="#000000" color-rendering="auto" dominant-baseline="auto" image-rendering="auto" solid-color="#000000" stop-color="#000000" style="font-feature-settings:normal;font-variant-alternates:normal;font-variant-caps:normal;font-variant-east-asian:normal;font-variant-ligatures:normal;font-variant-numeric:normal;font-variant-position:normal;font-variation-settings:normal;inline-size:0;isolation:auto;mix-blend-mode:normal;shape-margin:0;shape-padding:0;text-decoration-color:#000000;text-decoration-line:none;text-decoration-style:solid;text-indent:0;text-orientation:mixed;text-transform:none;white-space:normal"/>
   </g>
   <path d="m304.66 61.373a13.229 12.512 0 0 1-13.229 12.512 13.229 12.512 0 0 1-13.229-12.512 13.229 12.512 0 0 1 13.229-12.512 13.229 12.512 0 0 1 13.229 12.512z"/>
   <path d="m275.25 87.736a13.229 12.512 0 0 1-13.229 12.512 13.229 12.512 0 0 1-13.229-12.512 13.229 12.512 0 0 1 13.229-12.512 13.229 12.512 0 0 1 13.229 12.512z"/>
   <path d="m247.2 103.44a13.229 12.512 0 0 1-13.229 12.512 13.229 12.512 0 0 1-13.229-12.512 13.229 12.512 0 0 1 13.229-12.512 13.229 12.512 0 0 1 13.229 12.512z"/>
  </g>
  <g transform="matrix(3.4852 -.93384 .93384 3.4852 -512.21 -635.59)" shape-rendering="auto" stroke-width=".27715">
   <path transform="scale(.26458)" d="m580.81 853.87c-3.8435 0-7.6374 0.22029-11.367 0.64453 9.0106 1.9628 17.561 5.1477 25.49 9.3496 20.377 1.5652 38.456 6.4728 50.311 13.689-17.36-14.768-39.852-23.684-64.434-23.684z" color="#000000" color-rendering="auto" dominant-baseline="auto" fill="#072c0e" image-rendering="auto" solid-color="#000000" stop-color="#000000" style="font-feature-settings:normal;font-variant-alternates:normal;font-variant-caps:normal;font-variant-east-asian:normal;font-variant-ligatures:normal;font-variant-numeric:normal;font-variant-position:normal;font-variation-settings:normal;inline-size:0;isolation:auto;mix-blend-mode:normal;shape-margin:0;shape-padding:0;text-decoration-color:#000000;text-decoration-line:none;text-decoration-style:solid;text-indent:0;text-orientation:mixed;text-transform:none;white-space:normal"/>
   <path transform="scale(.26458)" d="m632.85 898.89c8.2772 13.028 13.638 28.09 15.162 44.268 8.6316 3.4525 15.661 7.5171 20.812 11.996 5.7549 5.0033 9.1727 10.56 9.8477 16.307 1.0778-5.8676 1.6445-11.914 1.6445-18.094 3e-5 -8.4284-1.0513-16.61-3.0234-24.426l-0.0273 8e-3c-2.5822-10.196-14.192-19.359-31.461-25.918-4.0261-1.5293-8.3666-2.9107-12.955-4.1406z" color="#000000" color-rendering="auto" dominant-baseline="auto" fill="#8c8c8c" image-rendering="auto" solid-color="#000000" stop-color="#000000" style="font-feature-settings:normal;font-variant-alternates:normal;font-variant-caps:normal;font-variant-east-asian:normal;font-variant-ligatures:normal;font-variant-numeric:normal;font-variant-position:normal;font-variation-settings:normal;inline-size:0;isolation:auto;mix-blend-mode:normal;shape-margin:0;shape-padding:0;text-decoration-color:#000000;text-decoration-line:none;text-decoration-style:solid;text-indent:0;text-orientation:mixed;text-transform:none;white-space:normal"/>
   <path transform="scale(.26458)" d="m641.46 989.61c-4.7638 12.055-11.787 22.972-20.555 32.221h2e-3c-0.0208 0.022-0.0455 0.044-0.0644 0.066-0.96789 1.0191-1.9612 2.0125-2.9707 2.9903 3.3225 2.2378 5.6002 4.8279 6.4629 7.7011 0.7271 2.4217 0.34857 4.8442-0.94532 7.0723-1.2938 2.2281-3.4829 4.276-6.4062 6.0977-0.53749 0.3349-1.1089 0.6595-1.6953 0.9785 14.56-5.3775 27.514-14.063 37.955-25.145 3.0699-3.3141 4.7514-6.7025 5.1602-10.057 0.41862-3.4351-0.48083-6.8531-2.6504-10.172-2.7526-4.2105-7.5811-8.2312-14.293-11.754z" color="#000000" color-rendering="auto" dominant-baseline="auto" fill="#3d0000" image-rendering="auto" solid-color="#000000" stop-color="#000000" style="font-feature-settings:normal;font-variant-alternates:normal;font-variant-caps:normal;font-variant-east-asian:normal;font-variant-ligatures:normal;font-variant-numeric:normal;font-variant-position:normal;font-variation-settings:normal;inline-size:0;isolation:auto;mix-blend-mode:normal;shape-margin:0;shape-padding:0;text-decoration-color:#000000;text-decoration-line:none;text-decoration-style:solid;text-indent:0;text-orientation:mixed;text-transform:none;white-space:normal"/>
  </g>
  <g shape-rendering="auto">
   <path d="m164.12 106.98c0.45594 5.6769 1.4273 11.393 2.9541 17.091 2.0825 7.7719 5.0735 15.057 8.8231 21.776l0.0225-0.0135c4.9003 8.764 17.87 14.344 35.414 16.126 17.545 1.7817 39.605-0.20963 62.529-6.3521 22.924-6.1425 43.024-15.448 57.328-25.763 14.303-10.315 22.745-21.633 22.607-31.673l0.0263 4.33e-4c-0.1125-7.6939-1.1646-15.498-3.2472-23.27-1.5268-5.6982-3.5434-11.134-5.987-16.278 0.79736 5.4654-0.98114 11.434-5.0516 17.47-5.6126 8.322-15.546 16.842-29.141 24.633-27.191 15.582-64.273 25.518-95.612 25.619-15.669 0.0509-28.532-2.3614-37.554-6.7622-6.5429-3.1916-11.067-7.4715-13.11-12.603z" color="#000000" color-rendering="auto" dominant-baseline="auto" fill="#f7f7f7" image-rendering="auto" solid-color="#000000" stop-color="#000000" style="font-feature-settings:normal;font-variant-alternates:normal;font-variant-caps:normal;font-variant-east-asian:normal;font-variant-ligatures:normal;font-variant-numeric:normal;font-variant-position:normal;font-variation-settings:normal;inline-size:0;isolation:auto;mix-blend-mode:normal;shape-margin:0;shape-padding:0;text-decoration-color:#000000;text-decoration-line:none;text-decoration-style:solid;text-indent:0;text-orientation:mixed;text-transform:none;white-space:normal"/>
   <path d="m218.35 185.63c19.657 9.3284 42.6 11.992 65.267 5.9187 22.667-6.0734 41.204-19.852 53.563-37.759-11.216 11.75-31.912 22.613-55.9 29.041-23.987 6.4274-47.343 7.3677-62.931 2.7998z" color="#000000" color-rendering="auto" dominant-baseline="auto" fill="#c00" image-rendering="auto" solid-color="#000000" stop-color="#000000" style="font-feature-settings:normal;font-variant-alternates:normal;font-variant-caps:normal;font-variant-east-asian:normal;font-variant-ligatures:normal;font-variant-numeric:normal;font-variant-position:normal;font-variation-settings:normal;inline-size:0;isolation:auto;mix-blend-mode:normal;shape-margin:0;shape-padding:0;text-decoration-color:#000000;text-decoration-line:none;text-decoration-style:solid;text-indent:0;text-orientation:mixed;text-transform:none;white-space:normal"/>
   <path d="m344.59 58.627c0.79736 5.4654-0.9811 11.434-5.0516 17.47-5.6126 8.322-15.546 16.842-29.141 24.633-22.916 13.132-52.855 22.252-80.462 24.857 5.7713 13.427 14.389 25.007 24.93 34.212 6.2131-1.078 12.569-2.4624 18.998-4.1852 22.924-6.1425 43.024-15.448 57.328-25.763 14.303-10.315 22.745-21.633 22.607-31.673l0.0267-0.0012c-0.1125-7.6939-1.1646-15.498-3.2472-23.27-1.5268-5.6982-3.5434-11.134-5.987-16.278z" color="#000000" color-rendering="auto" dominant-baseline="auto" fill="#ebebeb" image-rendering="auto" solid-color="#000000" stop-color="#000000" style="font-feature-settings:normal;font-variant-alternates:normal;font-variant-caps:normal;font-variant-east-asian:normal;font-variant-ligatures:normal;font-variant-numeric:normal;font-variant-position:normal;font-variation-settings:normal;inline-size:0;isolation:auto;mix-blend-mode:normal;shape-margin:0;shape-padding:0;text-decoration-color:#000000;text-decoration-line:none;text-decoration-style:solid;text-indent:0;text-orientation:mixed;text-transform:none;white-space:normal"/>
   <path d="m204.17 22.226c-12.01 8.4947-21.759 19.604-28.64 32.287-0.0102 0.01768-0.0131 0.03339-0.0242 0.04907-2.1052 3.9017-2.8566 7.5187-2.3958 10.776 0.46273 3.2709 2.1366 6.2006 4.9572 8.7247 5.6412 5.0484 15.906 8.3976 29.853 9.088 27.894 1.3808 63.58-8.1812 87.046-23.324 11.733-7.5714 18.948-15.604 21.31-22.797 1.1806-3.5963 1.1655-6.9703-0.0693-10.034-1.2057-2.9919-3.5934-5.7009-7.243-7.9984-12.366-7.6389-26.457-12.447-41.212-13.808 0.61954 0.14926 1.2267 0.30741 1.805 0.48339 3.1458 0.95754 5.6703 2.305 7.4139 4.0399 1.7436 1.7349 2.6913 3.8752 2.6191 6.2878-0.14432 4.8252-4.1674 9.9045-10.607 14.486-6.44 4.5813-15.354 8.6677-25.477 11.38-10.123 2.7126-19.878 3.6285-27.746 2.881-7.8682-0.74749-13.899-3.1328-16.436-7.2395-1.2688-2.0533-1.5182-4.3807-0.87574-6.755 0.64255-2.3743 2.1551-4.8035 4.4007-7.2056 0.41289-0.44159 0.85958-0.88207 1.3215-1.3212z" color="#000000" color-rendering="auto" dominant-baseline="auto" fill="#20923a" image-rendering="auto" solid-color="#000000" stop-color="#000000" style="font-feature-settings:normal;font-variant-alternates:normal;font-variant-caps:normal;font-variant-east-asian:normal;font-variant-ligatures:normal;font-variant-numeric:normal;font-variant-position:normal;font-variation-settings:normal;inline-size:0;isolation:auto;mix-blend-mode:normal;shape-margin:0;shape-padding:0;text-decoration-color:#000000;text-decoration-line:none;text-decoration-style:solid;text-indent:0;text-orientation:mixed;text-transform:none;white-space:normal"/>
   <path d="m337.18 153.79c-9.5967 10.054-26.146 19.448-45.748 25.981 4.5482 1.3176 9.2109 2.3018 13.951 2.9348 12.873-7.1866 23.676-17.15 31.796-28.915z" color="#000000" color-rendering="auto" dominant-baseline="auto" fill="#b20000" image-rendering="auto" solid-color="#000000" stop-color="#000000" style="font-feature-settings:normal;font-variant-alternates:normal;font-variant-caps:normal;font-variant-east-asian:normal;font-variant-ligatures:normal;font-variant-numeric:normal;font-variant-position:normal;font-variation-settings:normal;inline-size:0;isolation:auto;mix-blend-mode:normal;shape-margin:0;shape-padding:0;text-decoration-color:#000000;text-decoration-line:none;text-decoration-style:solid;text-indent:0;text-orientation:mixed;text-transform:none;white-space:normal"/>
   <path d="m268.72 5.2942c-0.0602 0.036003-0.1217 0.070462-0.18183 0.10664 0.34054 0.089288 0.68971 0.17342 1.015 0.27239 3.1458 0.95754 5.6703 2.305 7.4139 4.0399 1.7436 1.7349 2.6912 3.8752 2.6191 6.2879-0.14432 4.8252-4.1674 9.9045-10.607 14.486-6.44 4.5813-15.354 8.6677-25.477 11.38-3.7423 1.0028-7.4323 1.7565-10.997 2.275-6.0637 11.928-9.6605 25.14-10.319 38.823 25.006-1.7259 53.159-10.478 72.777-23.137 11.733-7.5714 18.948-15.604 21.31-22.797 1.1806-3.5963 1.1654-6.9704-0.0693-10.034-1.2057-2.9919-3.5934-5.7008-7.243-7.9984-12.093-7.4706-25.839-12.224-40.24-13.704z" color="#000000" color-rendering="auto" dominant-baseline="auto" fill="#1b7e31" image-rendering="auto" solid-color="#000000" stop-color="#000000" style="font-feature-settings:normal;font-variant-alternates:normal;font-variant-caps:normal;font-variant-east-asian:normal;font-variant-ligatures:normal;font-variant-numeric:normal;font-variant-position:normal;font-variation-settings:normal;inline-size:0;isolation:auto;mix-blend-mode:normal;shape-margin:0;shape-padding:0;text-decoration-color:#000000;text-decoration-line:none;text-decoration-style:solid;text-indent:0;text-orientation:mixed;text-transform:none;white-space:normal"/>
  </g>
  <g transform="translate(111.88 -1.792)">
   <g>
    <path transform="matrix(.26458 0 0 .26458 5.1174 -29.53)" d="m620.93 920.08c-30.22 6.8607-48.054 14.092-59.715 21.602-12.35 7.9541-17.76 16.23-23.576 24.486-5.8158 8.2556-12.04 16.519-26.189 24.791-7.1172 4.1609-16.249 8.3195-28.328 12.449l0.14844 1.1699-0.23047 0.541c35.934 15.203 66.136 22.559 91.219 24.119a7.205 7.0382 2.8675 0 1 0.0215-0.016l0.0117 0.023c13.193-6.0547 23.906-14.89 33.828-24.582-5.4339 7.447-10.996 14.888-13.836 23.545l-0.42578 1.2949 1.2246-0.584c4.4384-2.1086 8.5045-6.0107 12.576-9.9023l-6.4707 8.6738h-4e-3l-6e-3 0.01c-0.19024 0.2825-0.42739 0.5544-0.70898 0.7949a0.059375 0.059053 0 0 0 0.0391 0.1016c0.37502 0 0.76562-0.076 1.1309-0.125a7.5204 7.5204 0 0 1 2e-3 0c13.53-1.7374 25.063-5.52 34.727-10.846 30.718-16.929 42.562-49.239 40.635-79.477l-2e-3 4e-3 -1.1582 0.0762c1.9042 29.884-9.7582 61.692-40.039 78.381-9.1336 5.0337-20.013 8.6579-32.711 10.463l8.1113-10.859-0.88085-0.7579c-4.449 4.6527-9.0585 8.2035-13.787 10.875 3.565-9.0426 9.7773-17.064 15.619-25.332l-0.89063-0.7383c-10.817 11.095-22.594 21.039-37.174 27.789-24.732-1.5721-54.522-8.8093-90.002-23.76 11.833-4.0794 20.872-8.1942 27.949-12.332 14.313-8.3681 20.72-16.846 26.551-25.123 5.8309-8.2772 11.087-16.332 23.26-24.172 11.725-7.5509 30.038-14.9 61.309-21.867zm-19.746 107.79 2e-3 0.2754a1.2128 1.2128 0 0 1-4e-3 0c1e-3 0 1e-3 -0.065 0-0.1387l-2e-3 -0.1347-0.0234 0.033c-0.1072 0.1448-0.24356 0.3009-0.39648 0.4531l-0.10157 0.098c-2e-3 0-4e-3 -1e-4 -6e-3 0 0.20144-0.1866 0.37833-0.3857 0.53125-0.5938zm8e-3 0.293a7.5204 7.5204 0 0 1 0.30273 0.2031c-3e-3 4e-4 -5e-3 -4e-4 -8e-3 0-9.9e-4 0-0.22117-0.1528-0.2793-0.1875-0.017-0.01-0.0134-0.012-0.0156-0.016z" color="#000000" color-rendering="auto" dominant-baseline="auto" fill="#570000" image-rendering="auto" shape-rendering="auto" solid-color="#000000" stop-color="#000000" style="font-feature-settings:normal;font-variant-alternates:normal;font-variant-caps:normal;font-variant-east-asian:normal;font-variant-ligatures:normal;font-variant-numeric:normal;font-variant-position:normal;font-variation-settings:normal;inline-size:0;isolation:auto;mix-blend-mode:normal;shape-margin:0;shape-padding:0;text-decoration-color:#000000;text-decoration-line:none;text-decoration-style:solid;text-indent:0;text-orientation:mixed;text-transform:none;white-space:normal"/>
    <path d="m196.02 190.55c-0.8211 0.26087-1.7375 0.6407-2.7596 1.1595-7.2727 3.6921-17.409 12.967-25.1 22.598a19.291 19.291 0 0 1 3.4294-0.1346 19.291 19.291 0 0 1 12.488 5.441c4.4628-4.7008 8.6472-9.8666 11.814-14.775 2.5717-3.9862 4.1443-7.2945 4.7578-9.7593l-6e-3 -9e-3c-1.1014-1.5641-2.3513-3.0274-4.1151-4.2247-0.16753-0.10091-0.33467-0.20235-0.50827-0.29571z" fill="#8c8c8c"/>
    <path transform="matrix(.6825 .73089 -.8261 .56352 0 0)" d="m281.27-8.8971a5.8417 2.3636 0 0 1-5.8418 2.3636 5.8417 2.3636 0 0 1-5.8418-2.3636 5.8417 2.3636 0 0 1 5.8418-2.3636 5.8417 2.3636 0 0 1 5.8418 2.3636z" fill="#ebebeb" stroke="#000" stroke-linecap="round" stroke-linejoin="round" stroke-width=".53227"/>
    <path transform="matrix(.6825 .73089 -.8261 .56352 0 0)" d="m280.65-11.255a5.8417 2.3636 0 0 1-5.8418 2.3636 5.8417 2.3636 0 0 1-5.8418-2.3636 5.8417 2.3636 0 0 1 5.8418-2.3636 5.8417 2.3636 0 0 1 5.8418 2.3636z" fill="#ebebeb" stroke="#000" stroke-linecap="round" stroke-linejoin="round" stroke-width=".53227"/>
    <path d="m264.54 115.97c-1.0429-0.15159-4.6859 2.722-10.989 8.8849-15.489 15.144-38.097 39.147-59.7 66.667 2.4552 1.7496 4.5414 3.9659 6.1395 6.5223 19.444-20.566 36.263-41.68 50.669-60.285 10.806-13.955 15.508-21.553 13.881-21.79z" fill="#0c4013" opacity=".999"/>
    <path d="m247.76 141.5c-5.442 5.2057-10.458 11.141-16.54 15.251-2.7222 1.8557-3.2409 1.2901-1.6752-1.5659 3.6813-6.7071 10.138-14.433 15.367-21.694 4.4502-4.6536 9.3402-9.2979 14.323-13.94 5.6431-5.0965 7.4803-5.388 2.7468 2.6158-4.3284 6.584-9.2476 12.968-14.222 19.334z" fill="#072c0e"/>
    <path transform="matrix(1.1619 .058198 -.058198 1.1619 -60.965 -241.79)" d="m281.1 310.23c-11.358 15.188-30.426 39.196-42.563 53.591-12.137 14.395-12.769 13.751-1.4112-1.4364 11.358-15.188 30.426-39.196 42.563-53.591 12.137-14.395 12.769-13.751 1.4112 1.4364z" fill="#fff" filter="url(#filter1873)" opacity=".2"/>
   </g>
   <path d="m164.18 242.38-0.2571 0.26347 0.38138-0.0598z" fill="none"/>
   <path d="m164.18 242.38c-0.054 0.11709-0.13099 0.18759-0.23581 0.24204 0.12213-4e-3 0.24839-7e-3 0.36271-0.0411z" fill="none"/>
   <path transform="matrix(.26458 0 0 .26458 5.1174 -29.53)" d="m570.75 1027.7c-22.109-1.9182-47.328-8.1957-73.781-18.365-10.164-3.9075-12.579-4.9893-11.779-5.2758 12.624-4.5205 23.04-9.3849 30.402-14.199 9.6986-6.3414 15.372-12.041 23.684-23.79 10.69-15.111 17.204-20.989 30.91-27.89 11.342-5.7109 23.238-9.8355 43.167-14.968l7.2478-1.8664 6.364 0.0315c11.396 0.0564 20.865 2.3495 31.289 7.5774 6.1337 3.076 13.51 8.1878 16.761 11.615l1.0283 1.0841-0.22999 5.9326c-0.52202 13.465-3.3237 25.028-8.7194 35.985-9.6103 19.515-25.85 33.036-47.768 39.772-4.1145 1.2644-10.69 2.7848-14.422 3.3346l-1.554 0.2289 0.87459-1.1614c5.6038-7.4419 7.0341-9.4927 6.8398-9.8072-0.43002-0.6958-0.99089-0.3677-3.5858 2.0971-3.8601 3.6668-10.39 8.337-10.39 7.4311 0-0.7576 3.5953-7.4237 6.1618-11.425 1.3948-2.1744 4.0043-5.9897 5.7988-8.4784 1.7946-2.4886 3.1692-4.6763 3.0549-4.8613-0.36084-0.5839-1.0744-0.3681-1.9608 0.5928-3.9169 4.2466-14.239 13.137-20.126 17.333-6.3267 4.5102-15.167 9.359-16.874 9.2554-0.53907-0.033-1.6165-0.1146-2.3943-0.1821z" fill="#570000" stroke="#570000" stroke-linecap="round" stroke-linejoin="round" stroke-width="2.7"/>
   <path d="m164.03 242.58 0.17787-0.19754 0.11168 0.17084-0.29097 0.0449z" fill="#570000"/>
   <path d="m164.41 242.08 1.0247-1.4157-0.90524 1.608z" fill="none"/>
  </g>
 </g>
</svg>
