<?xml version="1.0" encoding="UTF-8" standalone="no"?>
<svg
   xmlns:dc="http://purl.org/dc/elements/1.1/"
   xmlns:cc="http://creativecommons.org/ns#"
   xmlns:rdf="http://www.w3.org/1999/02/22-rdf-syntax-ns#"
   xmlns:svg="http://www.w3.org/2000/svg"
   xmlns="http://www.w3.org/2000/svg"
   xmlns:sodipodi="http://sodipodi.sourceforge.net/DTD/sodipodi-0.dtd"
   xmlns:inkscape="http://www.inkscape.org/namespaces/inkscape"
   width="1080"
   height="1080"
   viewBox="0 0 285.75 285.75"
   version="1.1"
   id="svg847"
   sodipodi:docname="pwd.svg"
   inkscape:export-filename="/home/anonymous/Desktop/pwd/img/icon1.png"
   inkscape:export-xdpi="96"
   inkscape:export-ydpi="96"
   inkscape:version="1.0.1 (1.0.1+r74)">
  <defs
     id="defs841">
    <inkscape:path-effect
       effect="skeletal"
       id="path-effect1191"
       is_visible="true"
       lpeversion="1"
       pattern="m 424.40417,-220.45115 c 2.32903,-2.92605 6.09602,-3.09409 8.40842,-0.3751 2.31241,2.719 2.29892,7.30047 -0.0301,10.22652 -2.32903,2.92606 -6.09602,3.0941 -8.40842,0.37511 -2.31241,-2.71898 -2.29892,-7.30047 0.0301,-10.22653 z"
       copytype="single_stretched"
       prop_scale="0.19544074"
       scale_y_rel="false"
       spacing="0"
       normal_offset="0"
       tang_offset="0"
       prop_units="false"
       vertical_pattern="false"
       hide_knot="false"
       fuse_tolerance="0" />
    <inkscape:path-effect
       effect="skeletal"
       id="path-effect1187"
       is_visible="true"
       lpeversion="1"
       pattern="M 0,5 C 0,2.24 2.24,0 5,0 7.76,0 10,2.24 10,5 10,7.76 7.76,10 5,10 2.24,10 0,7.76 0,5 Z"
       copytype="single_stretched"
       prop_scale="-0.0993705"
       scale_y_rel="false"
       spacing="0"
       normal_offset="0"
       tang_offset="0"
       prop_units="false"
       vertical_pattern="false"
       hide_knot="false"
       fuse_tolerance="0" />
    <inkscape:path-effect
       effect="skeletal"
       id="path-effect1183"
       is_visible="true"
       lpeversion="1"
       pattern="M 0,5 C 0,2.24 2.24,0 5,0 7.76,0 10,2.24 10,5 10,7.76 7.76,10 5,10 2.24,10 0,7.76 0,5 Z"
       copytype="single_stretched"
       prop_scale="-0.0993705"
       scale_y_rel="false"
       spacing="0"
       normal_offset="0"
       tang_offset="0"
       prop_units="false"
       vertical_pattern="false"
       hide_knot="false"
       fuse_tolerance="0" />
    <inkscape:path-effect
       effect="skeletal"
       id="path-effect6212"
       is_visible="true"
       lpeversion="1"
       pattern="M 0,5 C 0,2.24 2.24,0 5,0 7.76,0 10,2.24 10,5 10,7.76 7.76,10 5,10 2.24,10 0,7.76 0,5 Z"
       copytype="single_stretched"
       prop_scale="-0.763083"
       scale_y_rel="false"
       spacing="0"
       normal_offset="0"
       tang_offset="0"
       prop_units="false"
       vertical_pattern="false"
       hide_knot="false"
       fuse_tolerance="0" />
    <inkscape:path-effect
       effect="skeletal"
       id="path-effect6192"
       is_visible="true"
       lpeversion="1"
       pattern="m 387.52062,-45.085605 c 1.69392,-2.179044 4.83718,-2.572774 7.01624,-0.878851 2.17904,1.693921 2.57276,4.837193 0.87884,7.016238 -1.69392,2.179044 -4.83719,2.572772 -7.01623,0.878852 -2.17906,-1.693922 -2.57277,-4.837194 -0.87885,-7.016239 z"
       copytype="single_stretched"
       prop_scale="-0.76308329"
       scale_y_rel="false"
       spacing="0"
       normal_offset="0"
       tang_offset="0"
       prop_units="false"
       vertical_pattern="false"
       hide_knot="false"
       fuse_tolerance="0" />
    <inkscape:path-effect
       effect="skeletal"
       id="path-effect6182"
       is_visible="true"
       lpeversion="1"
       pattern="m 140.83429,-236.29481 c 1.88663,-3.26773 6.06986,-4.38863 9.33759,-2.502 3.26772,1.88662 4.38863,6.06986 2.502,9.33759 -1.88662,3.26773 -6.06987,4.38863 -9.3376,2.502 -3.26773,-1.88662 -4.38861,-6.06986 -2.50199,-9.33759 z"
       copytype="single_stretched"
       prop_scale="-1.35291"
       scale_y_rel="false"
       spacing="0"
       normal_offset="0"
       tang_offset="0"
       prop_units="false"
       vertical_pattern="false"
       hide_knot="false"
       fuse_tolerance="0" />
    <inkscape:path-effect
       effect="skeletal"
       id="path-effect6160"
       is_visible="true"
       lpeversion="1"
       pattern="m -27.511886,-16.377422 c 0,-2.988806 2.425698,-5.414503 5.414503,-5.414503 2.988806,0 5.414504,2.425697 5.414504,5.414503 0,2.988806 -2.425698,5.414504 -5.414504,5.414504 -2.988805,0 -5.414503,-2.425698 -5.414503,-5.414504 z"
       copytype="single_stretched"
       prop_scale="-1.35291"
       scale_y_rel="false"
       spacing="0"
       normal_offset="0"
       tang_offset="0"
       prop_units="false"
       vertical_pattern="false"
       hide_knot="false"
       fuse_tolerance="0" />
    <inkscape:path-effect
       effect="skeletal"
       id="path-effect6154"
       is_visible="true"
       lpeversion="1"
       pattern="m 14.188656,-94.670183 c 0,-3.518138 2.855301,-6.373437 6.373439,-6.373437 3.518139,0 6.37344,2.855299 6.37344,6.373437 0,3.518139 -2.855301,6.37344 -6.37344,6.37344 -3.518138,0 -6.373439,-2.855301 -6.373439,-6.37344 z"
       copytype="single_stretched"
       prop_scale="-1.35291"
       scale_y_rel="false"
       spacing="0"
       normal_offset="0"
       tang_offset="0"
       prop_units="false"
       vertical_pattern="false"
       hide_knot="false"
       fuse_tolerance="0" />
    <inkscape:path-effect
       effect="skeletal"
       id="path-effect6146"
       is_visible="true"
       lpeversion="1"
       pattern="m -28.644377,-166.28753 c 0,-3.70102 3.377051,-6.70474 7.53806,-6.70474 4.161008,0 7.53806,3.00372 7.53806,6.70474 0,3.70101 -3.377052,6.70473 -7.53806,6.70473 -4.161009,0 -7.53806,-3.00372 -7.53806,-6.70473 z"
       copytype="single_stretched"
       prop_scale="-1.35291"
       scale_y_rel="false"
       spacing="0"
       normal_offset="0"
       tang_offset="0"
       prop_units="false"
       vertical_pattern="false"
       hide_knot="false"
       fuse_tolerance="0" />
    <inkscape:path-effect
       effect="skeletal"
       id="path-effect6120"
       is_visible="true"
       lpeversion="1"
       pattern="M 0,5 C 0,2.24 2.24,0 5,0 7.76,0 10,2.24 10,5 10,7.76 7.76,10 5,10 2.24,10 0,7.76 0,5 Z"
       copytype="single_stretched"
       prop_scale="-1.3529117"
       scale_y_rel="false"
       spacing="0"
       normal_offset="0"
       tang_offset="0"
       prop_units="false"
       vertical_pattern="false"
       hide_knot="false"
       fuse_tolerance="0" />
    <inkscape:path-effect
       effect="skeletal"
       id="path-effect6114"
       is_visible="true"
       lpeversion="1"
       pattern="m 34.074793,9.3027031 c -0.127881,-2.757037 2.005924,-5.098418 4.762961,-5.226299 2.757036,-0.1278812 5.098418,2.005925 5.226299,4.762961 0.12788,2.7570359 -2.005926,5.0984169 -4.762962,5.2262989 -2.757035,0.127881 -5.098418,-2.005925 -5.226298,-4.7629609 z"
       copytype="single_stretched"
       prop_scale="-0.71373885"
       scale_y_rel="false"
       spacing="0"
       normal_offset="0"
       tang_offset="0"
       prop_units="false"
       vertical_pattern="false"
       hide_knot="false"
       fuse_tolerance="0" />
    <inkscape:path-effect
       effect="skeletal"
       id="path-effect6080"
       is_visible="true"
       lpeversion="1"
       pattern="M 0,5 C 0,2.24 2.24,0 5,0 7.76,0 10,2.24 10,5 10,7.76 7.76,10 5,10 2.24,10 0,7.76 0,5 Z"
       copytype="single_stretched"
       prop_scale="-0.713739"
       scale_y_rel="false"
       spacing="0"
       normal_offset="0"
       tang_offset="0"
       prop_units="false"
       vertical_pattern="false"
       hide_knot="false"
       fuse_tolerance="0" />
    <inkscape:path-effect
       effect="skeletal"
       id="path-effect6072"
       is_visible="true"
       lpeversion="1"
       pattern="m 59.897554,-22.076002 c 0,-2.76 2.24,-5 5,-5 2.76,0 5,2.24 5,5 0,2.76 -2.24,5 -5,5 -2.76,0 -5,-2.24 -5,-5 z"
       copytype="single_stretched"
       prop_scale="-0.71373885"
       scale_y_rel="false"
       spacing="0"
       normal_offset="0"
       tang_offset="0"
       prop_units="false"
       vertical_pattern="false"
       hide_knot="false"
       fuse_tolerance="0" />
    <clipPath
       clipPathUnits="userSpaceOnUse"
       id="clipPath1048">
      <path
         id="path1050"
         style="fill:#ff0000;fill-opacity:1;fill-rule:nonzero;stroke:none;stroke-width:0.264583"
         d="m 188.86237,378.12988 v 25.33179 h 21.37027 c 0.002,-0.0282 0.0124,-0.061 0.0372,-0.10438 0.0152,-0.0266 0.0493,-0.0366 0.0739,-0.0548 0.13666,-0.0893 0.2688,-0.18616 0.42529,-0.23876 0.0217,-0.007 0.0497,-0.0233 0.0677,-0.009 0.0131,0.0103 0.0242,0.023 0.0367,0.0346 0.007,-0.005 0.0184,-0.0138 0.0233,-0.0169 0.0131,-0.008 0.0319,-0.0338 0.0419,-0.0217 0.0258,0.0321 0.0449,0.069 0.0625,0.10644 0.0321,-0.0101 0.0641,-0.0209 0.0966,-0.0294 0.0243,-0.007 0.0589,-0.0356 0.0739,-0.0156 0.002,0.003 0.003,0.008 0.005,0.0119 0.0526,-0.0287 0.10651,-0.0547 0.16226,-0.0744 0.0976,-0.0578 0.21209,-0.0963 0.29301,-0.1106 0.0376,-0.006 0.0784,-0.0148 0.11472,-0.003 0.0443,0.0143 0.0776,0.0516 0.11627,0.0775 -0.002,0.0272 -0.001,0.0552 -0.001,0.0827 0.0366,-0.0435 0.0702,-0.0901 0.11576,-0.12351 0.0676,-0.0495 0.13971,-0.0654 0.20515,-0.0537 0.0331,-0.0451 0.0726,-0.0863 0.12196,-0.12507 0.0435,-0.0341 0.0988,-0.0493 0.14831,-0.0739 0.0492,0.006 0.10512,-0.008 0.14831,0.014 0.0446,-0.0188 0.0915,-0.0329 0.14418,-0.0346 0.0568,-0.003 0.10995,0.0292 0.16485,0.0439 0.0318,0.0546 0.0844,0.10149 0.0951,0.1638 0.0113,0.0656 -0.0105,0.13396 -0.0315,0.19741 7.9e-4,-1.4e-4 0.002,0 0.003,0 0.0361,-0.0652 0.08,-0.12624 0.1266,-0.17727 0.0607,-0.0664 0.17584,-0.16 0.28061,-0.1669 0.0304,-0.0331 0.0627,-0.059 0.0966,-0.0661 0.0191,-0.004 0.0387,-0.003 0.0584,0.006 0.0891,0.0376 0.11584,0.0936 0.12299,0.15658 0.0273,-0.0584 0.0895,-0.0863 0.22686,-0.0512 0.0286,0.007 0.059,0.0378 0.0858,0.0723 0,0 0,0 0,0 0.0139,0 0.0251,0.003 0.0331,0.007 0.0121,-0.0371 0.0246,-0.0803 0.0274,-0.0811 0.044,-0.0109 0.0714,-0.0127 0.10025,-0.0161 0.13748,-0.069 0.17931,-0.018 0.21446,0.1297 0.009,0.0383 -0.007,0.0785 -0.0103,0.11782 -0.0132,0.16441 -0.003,0.0832 -0.0279,0.24236 -0.0155,0.0628 -0.034,0.14099 -0.076,0.18552 h 18.06815 v -25.33179 z m 23.91741,24.78765 v 0 c -0.0116,-0.004 -0.0339,0.003 -0.0579,0.0114 0.005,0.0565 -0.002,0.11517 -0.0145,0.17261 0.005,-0.003 0.01,-0.003 0.015,-0.005 0.008,-0.0156 0.0152,-0.0312 0.0233,-0.0465 0.0134,-0.0254 0.017,-0.0563 0.0357,-0.078 0.01,-0.0116 0.0291,-0.009 0.0434,-0.013 -0.0194,-0.0212 -0.0296,-0.0361 -0.045,-0.0419 z m 1.21646,0.45683 c -0.0228,0.0214 -0.0463,0.0395 -0.0729,0.0424 -0.0205,0.0204 -0.0425,0.0353 -0.0672,0.0284 -0.0113,-0.003 -0.0156,-0.007 -0.0253,-0.0103 -0.003,0.0148 -0.009,0.0259 -0.0212,0.0284 h 0.21084 c -0.0104,-0.0257 -0.0152,-0.0556 -0.0186,-0.0863 -7.9e-4,10e-5 -0.001,0 -0.002,0 -0.003,0 -0.002,-0.003 -0.004,-0.003 z" />
    </clipPath>
    <clipPath
       clipPathUnits="userSpaceOnUse"
       id="clipPath1058">
      <path
         id="path1060"
         style="fill:#ff0000;fill-opacity:1;fill-rule:nonzero;stroke:none;stroke-width:0.264583"
         d="m 209.74275,396.45228 v 7.00476 h 0.49041 c 0.004,-0.0274 0.0133,-0.0587 0.0367,-0.0998 0.0152,-0.0266 0.0493,-0.0366 0.0739,-0.0548 0.13666,-0.0893 0.2688,-0.18616 0.42529,-0.23876 0.0217,-0.007 0.0497,-0.0238 0.0677,-0.009 0.0131,0.0103 0.0242,0.0236 0.0367,0.0351 0.007,-0.005 0.0184,-0.0143 0.0233,-0.0175 0.0131,-0.008 0.0319,-0.0338 0.0419,-0.0217 0.0258,0.0321 0.0449,0.0695 0.0625,0.10697 0.0321,-0.01 0.0641,-0.0209 0.0966,-0.0294 0.0243,-0.007 0.0589,-0.0356 0.0739,-0.0156 0.002,0.003 0.003,0.008 0.005,0.0114 0.0526,-0.0287 0.10651,-0.0547 0.16226,-0.0744 0.0976,-0.0578 0.21209,-0.0958 0.29301,-0.11007 0.0376,-0.006 0.0784,-0.0148 0.11472,-0.003 0.0443,0.0143 0.0776,0.0516 0.11627,0.0775 -0.002,0.0272 -0.001,0.0552 -0.001,0.0827 0.0366,-0.0435 0.0702,-0.0901 0.11576,-0.12351 0.0676,-0.0495 0.13971,-0.0655 0.20515,-0.0537 0.0331,-0.0451 0.0726,-0.0863 0.12196,-0.12506 0.0435,-0.0341 0.0988,-0.0493 0.14831,-0.0739 0.0492,0.006 0.10512,-0.008 0.14831,0.014 0.0446,-0.0188 0.0915,-0.0329 0.14418,-0.0346 0.0568,-0.003 0.10995,0.0292 0.16485,0.0439 0.0318,0.0546 0.0844,0.1015 0.0951,0.16381 0.0113,0.0656 -0.0105,0.13396 -0.0315,0.1974 7.9e-4,-1.3e-4 0.002,0 0.003,0 0.0361,-0.0652 0.08,-0.12623 0.1266,-0.17727 0.0607,-0.0664 0.17584,-0.15999 0.28061,-0.1669 0.0304,-0.0331 0.0627,-0.059 0.0966,-0.0661 0.0191,-0.004 0.0387,-0.003 0.0584,0.006 0.0891,0.0376 0.11584,0.0936 0.12299,0.15658 0.0273,-0.0585 0.0895,-0.0863 0.22686,-0.0512 0.0286,0.007 0.059,0.0378 0.0858,0.0723 0,0 0,0 0,0 0.0139,0 0.0251,0.003 0.0331,0.007 0.0121,-0.0371 0.0246,-0.0803 0.0274,-0.0811 0.044,-0.0109 0.0714,-0.0127 0.10025,-0.0161 0.13748,-0.069 0.17931,-0.018 0.21446,0.1297 0.009,0.0383 -0.007,0.0785 -0.0103,0.11782 -0.0132,0.16441 -0.003,0.0832 -0.0279,0.24235 -0.015,0.0608 -0.0332,0.13555 -0.0724,0.18087 h 3.90519 v -7.00473 z m 3.03703,6.46525 v 0 c -0.0116,-0.004 -0.0339,0.003 -0.0579,0.0114 0.005,0.0565 -0.002,0.11517 -0.0145,0.17261 0.005,-0.003 0.01,-0.003 0.015,-0.005 0.008,-0.0156 0.0152,-0.0312 0.0233,-0.0465 0.0134,-0.0254 0.017,-0.0563 0.0357,-0.078 0.01,-0.0116 0.0291,-0.009 0.0434,-0.013 -0.0194,-0.0212 -0.0296,-0.0361 -0.045,-0.0419 z m 1.21646,0.45683 c -0.0228,0.0214 -0.0463,0.0395 -0.0729,0.0424 -0.0205,0.0204 -0.0425,0.0353 -0.0672,0.0284 -0.0113,-0.003 -0.0156,-0.007 -0.0253,-0.0103 -0.002,0.0106 -0.007,0.0185 -0.0129,0.0238 h 0.20051 c -0.009,-0.0246 -0.0133,-0.0529 -0.0165,-0.0817 -7.9e-4,10e-5 -0.001,0 -0.002,0 -0.003,0 -0.002,-0.003 -0.004,-0.003 z" />
    </clipPath>
    <filter
       inkscape:collect="always"
       style="color-interpolation-filters:sRGB"
       id="filter1873"
       x="-0.013553139"
       width="1.0271063"
       y="-0.01076623"
       height="1.0215325">
      <feGaussianBlur
         inkscape:collect="always"
         stdDeviation="0.34005569"
         id="feGaussianBlur1875" />
    </filter>
  </defs>
  <sodipodi:namedview
     id="base"
     pagecolor="#ffffff"
     bordercolor="#666666"
     borderopacity="1.0"
     inkscape:pageopacity="0.0"
     inkscape:pageshadow="2"
     inkscape:zoom="0.30625049"
     inkscape:cx="-322.28967"
     inkscape:cy="515.89484"
     inkscape:document-units="px"
     inkscape:current-layer="layer1"
     inkscape:document-rotation="0"
     showgrid="false"
     units="px"
     inkscape:pagecheckerboard="true"
     inkscape:showpageshadow="false"
     showborder="true"
     inkscape:window-width="952"
     inkscape:window-height="704"
     inkscape:window-x="72"
     inkscape:window-y="27"
     inkscape:window-maximized="1"
     inkscape:snap-bbox="true"
     inkscape:bbox-paths="true"
     inkscape:bbox-nodes="true"
     inkscape:snap-bbox-edge-midpoints="true"
     inkscape:snap-bbox-midpoints="true"
     inkscape:object-paths="true"
     inkscape:snap-intersection-paths="true"
     inkscape:snap-smooth-nodes="true"
     inkscape:snap-midpoints="true"
     inkscape:snap-object-midpoints="true"
     inkscape:snap-global="false"
     fit-margin-top="0"
     fit-margin-left="0"
     fit-margin-right="0"
     fit-margin-bottom="0" />
  <metadata
     id="metadata844">
    <rdf:RDF>
      <cc:Work
         rdf:about="">
        <dc:format>image/svg+xml</dc:format>
        <dc:type
           rdf:resource="http://purl.org/dc/dcmitype/StillImage" />
        <dc:title />
      </cc:Work>
    </rdf:RDF>
  </metadata>
  <g
     inkscape:label="Layer 1"
     inkscape:groupmode="layer"
     id="layer1"
     transform="translate(-5.1173725,29.529909)">
    <g
       id="g920"
       transform="matrix(1.2075939,0,0,1.2075939,-38.601926,-42.116471)">
      <g
         id="g6013"
         transform="matrix(3.4851528,-0.93384387,0.93384387,3.4851528,-290.53877,-714.26111)"
         style="stroke-width:0.277154">
        <g
           id="g5878"
           transform="rotate(15,57.2681,250.59082)"
           style="stroke-width:0.277154">
          <path
             style="color:#000000;font-style:normal;font-variant:normal;font-weight:normal;font-stretch:normal;font-size:medium;line-height:normal;font-family:sans-serif;font-variant-ligatures:normal;font-variant-position:normal;font-variant-caps:normal;font-variant-numeric:normal;font-variant-alternates:normal;font-variant-east-asian:normal;font-feature-settings:normal;font-variation-settings:normal;text-indent:0;text-align:start;text-decoration:none;text-decoration-line:none;text-decoration-style:solid;text-decoration-color:#000000;letter-spacing:normal;word-spacing:normal;text-transform:none;writing-mode:lr-tb;direction:ltr;text-orientation:mixed;dominant-baseline:auto;baseline-shift:baseline;text-anchor:start;white-space:normal;shape-padding:0;shape-margin:0;inline-size:0;clip-rule:nonzero;display:inline;overflow:visible;visibility:visible;isolation:auto;mix-blend-mode:normal;color-interpolation:sRGB;color-interpolation-filters:linearRGB;solid-color:#000000;solid-opacity:1;vector-effect:none;fill:#0c4013;fill-opacity:1;fill-rule:nonzero;stroke:none;stroke-width:0.0733305;stroke-linecap:butt;stroke-linejoin:miter;stroke-miterlimit:4;stroke-dasharray:none;stroke-dashoffset:0;stroke-opacity:1;color-rendering:auto;image-rendering:auto;shape-rendering:auto;text-rendering:auto;enable-background:accumulate;stop-color:#000000"
             d="m 35.626046,235.6552 c 3.425416,-4.96302 8.56316,-8.78182 14.845319,-10.46512 6.282162,-1.68333 12.640981,-0.94499 18.088994,1.6404 -4.320274,-1.266 -10.793298,-1.0054 -17.441524,0.77599 -6.648226,1.78138 -12.384321,4.7922 -15.492789,8.04873 z"
             id="path5810" />
          <path
             style="color:#000000;font-style:normal;font-variant:normal;font-weight:normal;font-stretch:normal;font-size:medium;line-height:normal;font-family:sans-serif;font-variant-ligatures:normal;font-variant-position:normal;font-variant-caps:normal;font-variant-numeric:normal;font-variant-alternates:normal;font-variant-east-asian:normal;font-feature-settings:normal;font-variation-settings:normal;text-indent:0;text-align:start;text-decoration:none;text-decoration-line:none;text-decoration-style:solid;text-decoration-color:#000000;letter-spacing:normal;word-spacing:normal;text-transform:none;writing-mode:lr-tb;direction:ltr;text-orientation:mixed;dominant-baseline:auto;baseline-shift:baseline;text-anchor:start;white-space:normal;shape-padding:0;shape-margin:0;inline-size:0;clip-rule:nonzero;display:inline;overflow:visible;visibility:visible;isolation:auto;mix-blend-mode:normal;color-interpolation:sRGB;color-interpolation-filters:linearRGB;solid-color:#000000;solid-opacity:1;vector-effect:none;fill:#999999;fill-opacity:1;fill-rule:nonzero;stroke:none;stroke-width:0.0733305;stroke-linecap:butt;stroke-linejoin:miter;stroke-miterlimit:4;stroke-dasharray:none;stroke-dashoffset:0;stroke-opacity:1;color-rendering:auto;image-rendering:auto;shape-rendering:auto;text-rendering:auto;enable-background:accumulate;stop-color:#000000"
             d="m 33.515379,261.94431 c -0.677252,-1.42577 -1.236171,-2.93228 -1.659338,-4.51156 -0.577171,-2.15403 -0.868786,-4.31708 -0.899967,-6.44949 l 0.0073,1.2e-4 c -0.03829,-2.78263 2.301302,-5.91929 6.265567,-8.77821 3.964258,-2.85895 9.53509,-5.43801 15.888641,-7.14044 6.353551,-1.70243 12.467572,-2.25432 17.330186,-1.76052 4.862625,0.49377 8.457102,2.0404 9.815243,4.46937 l 0.0062,-0.004 c 1.039202,1.86231 1.86819,3.88137 2.445352,6.0354 0.423167,1.57928 0.692395,3.16342 0.818761,4.73679 -0.566001,-1.42232 -1.820017,-2.6085 -3.633414,-3.49308 -2.500378,-1.2197 -6.065269,-1.88824 -10.408116,-1.87416 -8.685719,0.0281 -18.963083,2.78193 -26.4992,7.10043 -3.768051,2.15924 -6.521078,4.52066 -8.076622,6.82714 -1.128147,1.67276 -1.621065,3.32704 -1.400075,4.8418 z"
             id="path5812" />
          <path
             style="color:#000000;font-style:normal;font-variant:normal;font-weight:normal;font-stretch:normal;font-size:medium;line-height:normal;font-family:sans-serif;font-variant-ligatures:normal;font-variant-position:normal;font-variant-caps:normal;font-variant-numeric:normal;font-variant-alternates:normal;font-variant-east-asian:normal;font-feature-settings:normal;font-variation-settings:normal;text-indent:0;text-align:start;text-decoration:none;text-decoration-line:none;text-decoration-style:solid;text-decoration-color:#000000;letter-spacing:normal;word-spacing:normal;text-transform:none;writing-mode:lr-tb;direction:ltr;text-orientation:mixed;dominant-baseline:auto;baseline-shift:baseline;text-anchor:start;white-space:normal;shape-padding:0;shape-margin:0;inline-size:0;clip-rule:nonzero;display:inline;overflow:visible;visibility:visible;isolation:auto;mix-blend-mode:normal;color-interpolation:sRGB;color-interpolation-filters:linearRGB;solid-color:#000000;solid-opacity:1;vector-effect:none;fill:#570000;fill-opacity:1;fill-rule:nonzero;stroke:none;stroke-width:0.0733305;stroke-linecap:butt;stroke-linejoin:miter;stroke-miterlimit:4;stroke-dasharray:none;stroke-dashoffset:0;stroke-opacity:1;color-rendering:auto;image-rendering:auto;shape-rendering:auto;text-rendering:auto;enable-background:accumulate;stop-color:#000000"
             d="m 54.867389,276.84065 c -4.059878,-0.37459 -7.939182,-1.69006 -11.348621,-3.78085 -0.0049,-0.003 -0.0079,-0.006 -0.01261,-0.008 -1.045977,-0.64476 -1.727559,-1.4088 -2.068367,-2.25451 -0.342219,-0.84923 -0.346421,-1.78436 -0.0192,-2.78109 0.65441,-1.99347 2.654149,-4.21985 5.906069,-6.3183 6.503843,-4.19687 16.394286,-6.847 24.125205,-6.46432 3.865466,0.19134 6.710473,1.11958 8.273954,2.51876 0.781734,0.69959 1.245668,1.51154 1.373915,2.4181 0.125212,0.8852 -0.07248,1.8663 -0.630098,2.92352 -1.909474,3.54711 -4.625517,6.65393 -7.978219,9.02527 0.128029,-0.12168 0.25183,-0.24376 0.366258,-0.36617 0.622366,-0.66575 1.041575,-1.33902 1.219662,-1.99706 0.178093,-0.65804 0.10895,-1.30308 -0.242705,-1.87217 -0.703303,-1.13817 -2.372826,-1.79981 -4.553435,-2.007 -2.180606,-0.20719 -4.88651,0.0473 -7.692044,0.79903 -2.805642,0.75172 -5.274051,1.88374 -7.059015,3.1535 -1.78496,1.26977 -2.901905,2.67799 -2.941889,4.01537 -0.02,0.66868 0.242663,1.26186 0.72589,1.7427 0.483245,0.48084 1.182926,0.8543 2.054798,1.11968 0.160296,0.0488 0.328552,0.0926 0.500274,0.13398 z"
             id="path5814" />
        </g>
        <g
           id="g5997"
           transform="translate(-96.403605,-1.6210898)"
           style="stroke-width:0.277154">
          <path
             id="path5934"
             style="color:#000000;font-style:normal;font-variant:normal;font-weight:normal;font-stretch:normal;font-size:medium;line-height:normal;font-family:sans-serif;font-variant-ligatures:normal;font-variant-position:normal;font-variant-caps:normal;font-variant-numeric:normal;font-variant-alternates:normal;font-variant-east-asian:normal;font-feature-settings:normal;font-variation-settings:normal;text-indent:0;text-align:start;text-decoration:none;text-decoration-line:none;text-decoration-style:solid;text-decoration-color:#000000;letter-spacing:normal;word-spacing:normal;text-transform:none;writing-mode:lr-tb;direction:ltr;text-orientation:mixed;dominant-baseline:auto;baseline-shift:baseline;text-anchor:start;white-space:normal;shape-padding:0;shape-margin:0;inline-size:0;clip-rule:nonzero;display:inline;overflow:visible;visibility:visible;isolation:auto;mix-blend-mode:normal;color-interpolation:sRGB;color-interpolation-filters:linearRGB;solid-color:#000000;solid-opacity:1;vector-effect:none;fill:#072c0e;fill-opacity:1;fill-rule:nonzero;stroke:none;stroke-width:0.277154;stroke-linecap:butt;stroke-linejoin:miter;stroke-miterlimit:4;stroke-dasharray:none;stroke-dashoffset:0;stroke-opacity:1;color-rendering:auto;image-rendering:auto;shape-rendering:auto;text-rendering:auto;enable-background:accumulate;stop-color:#000000"
             d="m 580.81445,853.86914 c -3.84354,0 -7.63742,0.22029 -11.36718,0.64453 9.01064,1.96279 17.56064,5.14769 25.49023,9.34961 20.37733,1.56519 38.45634,6.47277 50.31055,13.68945 -17.36024,-14.76793 -39.85238,-23.6837 -64.4336,-23.68359 z"
             transform="scale(0.26458333)" />
          <path
             id="path5936"
             style="color:#000000;font-style:normal;font-variant:normal;font-weight:normal;font-stretch:normal;font-size:medium;line-height:normal;font-family:sans-serif;font-variant-ligatures:normal;font-variant-position:normal;font-variant-caps:normal;font-variant-numeric:normal;font-variant-alternates:normal;font-variant-east-asian:normal;font-feature-settings:normal;font-variation-settings:normal;text-indent:0;text-align:start;text-decoration:none;text-decoration-line:none;text-decoration-style:solid;text-decoration-color:#000000;letter-spacing:normal;word-spacing:normal;text-transform:none;writing-mode:lr-tb;direction:ltr;text-orientation:mixed;dominant-baseline:auto;baseline-shift:baseline;text-anchor:start;white-space:normal;shape-padding:0;shape-margin:0;inline-size:0;clip-rule:nonzero;display:inline;overflow:visible;visibility:visible;isolation:auto;mix-blend-mode:normal;color-interpolation:sRGB;color-interpolation-filters:linearRGB;solid-color:#000000;solid-opacity:1;vector-effect:none;fill:#8c8c8c;fill-opacity:1;fill-rule:nonzero;stroke:none;stroke-width:0.277154;stroke-linecap:butt;stroke-linejoin:miter;stroke-miterlimit:4;stroke-dasharray:none;stroke-dashoffset:0;stroke-opacity:1;color-rendering:auto;image-rendering:auto;shape-rendering:auto;text-rendering:auto;enable-background:accumulate;stop-color:#000000"
             d="m 632.84961,898.89258 c 8.27717,13.02816 13.63763,28.09024 15.16211,44.26758 8.63156,3.45246 15.66065,7.51711 20.8125,11.99609 5.75493,5.00326 9.17267,10.56044 9.84766,16.30664 1.07777,-5.86756 1.64453,-11.91426 1.64453,-18.09375 3e-5,-8.42838 -1.05132,-16.6104 -3.02344,-24.42578 l -0.0273,0.008 c -2.58217,-10.19611 -14.19174,-19.35867 -31.46093,-25.91797 -4.02614,-1.52927 -8.3666,-2.91067 -12.95508,-4.14062 z"
             transform="scale(0.26458333)" />
          <path
             id="path5938"
             style="color:#000000;font-style:normal;font-variant:normal;font-weight:normal;font-stretch:normal;font-size:medium;line-height:normal;font-family:sans-serif;font-variant-ligatures:normal;font-variant-position:normal;font-variant-caps:normal;font-variant-numeric:normal;font-variant-alternates:normal;font-variant-east-asian:normal;font-feature-settings:normal;font-variation-settings:normal;text-indent:0;text-align:start;text-decoration:none;text-decoration-line:none;text-decoration-style:solid;text-decoration-color:#000000;letter-spacing:normal;word-spacing:normal;text-transform:none;writing-mode:lr-tb;direction:ltr;text-orientation:mixed;dominant-baseline:auto;baseline-shift:baseline;text-anchor:start;white-space:normal;shape-padding:0;shape-margin:0;inline-size:0;clip-rule:nonzero;display:inline;overflow:visible;visibility:visible;isolation:auto;mix-blend-mode:normal;color-interpolation:sRGB;color-interpolation-filters:linearRGB;solid-color:#000000;solid-opacity:1;vector-effect:none;fill:#3d0000;fill-opacity:1;fill-rule:nonzero;stroke:none;stroke-width:0.277154;stroke-linecap:butt;stroke-linejoin:miter;stroke-miterlimit:4;stroke-dasharray:none;stroke-dashoffset:0;stroke-opacity:1;color-rendering:auto;image-rendering:auto;shape-rendering:auto;text-rendering:auto;enable-background:accumulate;stop-color:#000000"
             d="m 641.46094,989.60742 c -4.76382,12.05548 -11.78653,22.97248 -20.55469,32.22068 h 0.002 c -0.0208,0.022 -0.0455,0.044 -0.0644,0.066 -0.96789,1.0191 -1.96123,2.0125 -2.9707,2.9903 3.32248,2.2378 5.60015,4.8279 6.46289,7.7011 0.7271,2.4217 0.34857,4.8442 -0.94532,7.0723 -1.29384,2.2281 -3.48289,4.276 -6.40624,6.0977 -0.53749,0.3349 -1.10889,0.6595 -1.69532,0.9785 14.55954,-5.3775 27.51425,-14.0628 37.95508,-25.1446 3.06992,-3.3141 4.75136,-6.7025 5.16016,-10.0566 0.41862,-3.4351 -0.48083,-6.8531 -2.65039,-10.1719 -2.75259,-4.21052 -7.58113,-8.23118 -14.29297,-11.75388 z"
             transform="scale(0.26458333)" />
        </g>
        <path
           style="color:#000000;font-style:normal;font-variant:normal;font-weight:normal;font-stretch:normal;font-size:medium;line-height:normal;font-family:sans-serif;font-variant-ligatures:normal;font-variant-position:normal;font-variant-caps:normal;font-variant-numeric:normal;font-variant-alternates:normal;font-variant-east-asian:normal;font-feature-settings:normal;font-variation-settings:normal;text-indent:0;text-align:start;text-decoration:none;text-decoration-line:none;text-decoration-style:solid;text-decoration-color:#000000;letter-spacing:normal;word-spacing:normal;text-transform:none;writing-mode:lr-tb;direction:ltr;text-orientation:mixed;dominant-baseline:auto;baseline-shift:baseline;text-anchor:start;white-space:normal;shape-padding:0;shape-margin:0;inline-size:0;clip-rule:nonzero;display:inline;overflow:visible;visibility:visible;isolation:auto;mix-blend-mode:normal;color-interpolation:sRGB;color-interpolation-filters:linearRGB;solid-color:#000000;solid-opacity:1;vector-effect:none;fill:#f7f7f7;fill-opacity:1;fill-rule:nonzero;stroke:none;stroke-width:0.0733305;stroke-linecap:butt;stroke-linejoin:miter;stroke-miterlimit:4;stroke-dasharray:none;stroke-dashoffset:0;stroke-opacity:1;color-rendering:auto;image-rendering:auto;shape-rendering:auto;text-rendering:auto;enable-background:accumulate;stop-color:#000000"
           d="m 31.389759,245.68911 c -0.285159,1.55247 -0.435119,3.15231 -0.43512,4.7873 1e-6,2.23001 0.27816,4.39484 0.79995,6.46266 l 0.007,-0.002 c 0.683209,2.69772 3.75491,5.12197 8.324039,6.85745 4.569129,1.73552 10.617652,2.78484 17.19533,2.78485 6.57768,0 12.626211,-1.04934 17.195331,-2.78485 4.569139,-1.73548 7.640838,-4.15973 8.324037,-6.85744 l 0.007,0.002 c 0.52179,-2.06782 0.799962,-4.23265 0.799952,-6.46266 0,-1.635 -0.149952,-3.23483 -0.43511,-4.7873 -0.178591,1.52035 -1.08287,2.99068 -2.605531,4.31446 -2.099501,1.82528 -5.36989,3.3937 -9.5684,4.50412 -8.39704,2.22086 -19.03695,2.22086 -27.433991,0 -4.198517,-1.11039 -7.468908,-2.67885 -9.568409,-4.50412 -1.522651,-1.32378 -2.426929,-2.79411 -2.60552,-4.31446 z"
           id="path5895" />
        <path
           style="color:#000000;font-style:normal;font-variant:normal;font-weight:normal;font-stretch:normal;font-size:medium;line-height:normal;font-family:sans-serif;font-variant-ligatures:normal;font-variant-position:normal;font-variant-caps:normal;font-variant-numeric:normal;font-variant-alternates:normal;font-variant-east-asian:normal;font-feature-settings:normal;font-variation-settings:normal;text-indent:0;text-align:start;text-decoration:none;text-decoration-line:none;text-decoration-style:solid;text-decoration-color:#000000;letter-spacing:normal;word-spacing:normal;text-transform:none;writing-mode:lr-tb;direction:ltr;text-orientation:mixed;dominant-baseline:auto;baseline-shift:baseline;text-anchor:start;white-space:normal;shape-padding:0;shape-margin:0;inline-size:0;clip-rule:nonzero;display:inline;overflow:visible;visibility:visible;isolation:auto;mix-blend-mode:normal;color-interpolation:sRGB;color-interpolation-filters:linearRGB;solid-color:#000000;solid-opacity:1;vector-effect:none;fill:#cc0000;fill-opacity:1;fill-rule:nonzero;stroke:none;stroke-width:0.0733305;stroke-linecap:butt;stroke-linejoin:miter;stroke-miterlimit:4;stroke-dasharray:none;stroke-dashoffset:0;stroke-opacity:1;color-rendering:auto;image-rendering:auto;shape-rendering:auto;text-rendering:auto;enable-background:accumulate;stop-color:#000000"
           d="m 40.26555,270.63352 c 4.59322,3.90735 10.544281,6.26628 17.04805,6.26628 6.50378,4e-5 12.454832,-2.35894 17.04806,-6.26627 -3.845399,2.34102 -10.165311,3.76465 -17.048059,3.76464 -6.882751,1e-5 -13.202651,-1.42361 -17.048051,-3.76465 z"
           id="path5808" />
        <path
           id="path5806"
           style="color:#000000;font-style:normal;font-variant:normal;font-weight:normal;font-stretch:normal;font-size:medium;line-height:normal;font-family:sans-serif;font-variant-ligatures:normal;font-variant-position:normal;font-variant-caps:normal;font-variant-numeric:normal;font-variant-alternates:normal;font-variant-east-asian:normal;font-feature-settings:normal;font-variation-settings:normal;text-indent:0;text-align:start;text-decoration:none;text-decoration-line:none;text-decoration-style:solid;text-decoration-color:#000000;letter-spacing:normal;word-spacing:normal;text-transform:none;writing-mode:lr-tb;direction:ltr;text-orientation:mixed;dominant-baseline:auto;baseline-shift:baseline;text-anchor:start;white-space:normal;shape-padding:0;shape-margin:0;inline-size:0;clip-rule:nonzero;display:inline;overflow:visible;visibility:visible;isolation:auto;mix-blend-mode:normal;color-interpolation:sRGB;color-interpolation-filters:linearRGB;solid-color:#000000;solid-opacity:1;vector-effect:none;fill:#ebebeb;fill-opacity:1;fill-rule:nonzero;stroke:none;stroke-width:0.277154;stroke-linecap:butt;stroke-linejoin:miter;stroke-miterlimit:4;stroke-dasharray:none;stroke-dashoffset:0;stroke-opacity:1;color-rendering:auto;image-rendering:auto;shape-rendering:auto;text-rendering:auto;enable-background:accumulate;stop-color:#000000"
           d="m 314.35156,928.58789 c -0.67499,5.74621 -4.09271,11.30338 -9.84765,16.30664 -7.93513,6.8987 -20.29568,12.82658 -36.16407,17.02344 -26.74653,7.07396 -59.5124,8.18527 -88.15234,3.33594 2.19927,15.1502 7.77873,29.20385 15.94922,41.37499 6.57878,0.5937 13.38475,0.916 20.35742,0.916 24.86052,0 47.72112,-3.966 64.99024,-10.52537 17.26918,-6.55929 28.87876,-15.7219 31.46093,-25.91797 l 0.0274,0.006 c 1.97212,-7.81538 3.02347,-15.9974 3.02343,-24.42578 0,-6.17953 -0.56676,-12.22615 -1.64453,-18.09375 z"
           transform="scale(0.26458333)" />
        <path
           style="color:#000000;font-style:normal;font-variant:normal;font-weight:normal;font-stretch:normal;font-size:medium;line-height:normal;font-family:sans-serif;font-variant-ligatures:normal;font-variant-position:normal;font-variant-caps:normal;font-variant-numeric:normal;font-variant-alternates:normal;font-variant-east-asian:normal;font-feature-settings:normal;font-variation-settings:normal;text-indent:0;text-align:start;text-decoration:none;text-decoration-line:none;text-decoration-style:solid;text-decoration-color:#000000;letter-spacing:normal;word-spacing:normal;text-transform:none;writing-mode:lr-tb;direction:ltr;text-orientation:mixed;dominant-baseline:auto;baseline-shift:baseline;text-anchor:start;white-space:normal;shape-padding:0;shape-margin:0;inline-size:0;clip-rule:nonzero;display:inline;overflow:visible;visibility:visible;isolation:auto;mix-blend-mode:normal;color-interpolation:sRGB;color-interpolation-filters:linearRGB;solid-color:#000000;solid-opacity:1;vector-effect:none;fill:#20923a;fill-opacity:1;fill-rule:nonzero;stroke:none;stroke-width:0.0733305;stroke-linecap:butt;stroke-linejoin:miter;stroke-miterlimit:4;stroke-dasharray:none;stroke-dashoffset:0;stroke-opacity:1;color-rendering:auto;image-rendering:auto;shape-rendering:auto;text-rendering:auto;enable-background:accumulate;stop-color:#000000"
           d="m 48.19168,225.87141 c -3.824589,1.41259 -7.231239,3.68728 -9.98337,6.58925 -0.004,0.004 -0.0059,0.008 -0.01,0.0114 -0.843462,0.89351 -1.304072,1.80792 -1.414382,2.71302 -0.110758,0.90886 0.12721,1.81322 0.701252,2.69129 1.14806,1.75617 3.655889,3.38913 7.34012,4.5744 7.36846,2.37056 17.6078,2.37055 24.97625,0 3.68423,-1.18528 6.19205,-2.81823 7.340119,-4.57439 0.57403,-0.87808 0.81201,-1.78243 0.701254,-2.6913 -0.10816,-0.88744 -0.55304,-1.78395 -1.365289,-2.66083 -2.762471,-2.93203 -6.19007,-5.23002 -10.042282,-6.65282 0.155151,0.0844 0.306339,0.17029 0.448551,0.25889 0.77347,0.482 1.352649,1.02383 1.694979,1.61335 0.342342,0.58952 0.442501,1.23048 0.250121,1.8712 -0.384763,1.28141 -1.82615,2.35261 -3.878829,3.11713 -2.052682,0.76451 -4.732251,1.21903 -7.636751,1.21904 -2.904601,5e-5 -5.58189,-0.45453 -7.63467,-1.21904 -2.052781,-0.76452 -3.496139,-1.83568 -3.8809,-3.11713 -0.192391,-0.64072 -0.0922,-1.28167 0.250109,-1.8712 0.342332,-0.58953 0.921511,-1.13136 1.694989,-1.61334 0.142211,-0.0886 0.293391,-0.17448 0.448553,-0.25891 z"
           id="path5793" />
        <path
           id="path5893"
           style="color:#000000;font-style:normal;font-variant:normal;font-weight:normal;font-stretch:normal;font-size:medium;line-height:normal;font-family:sans-serif;font-variant-ligatures:normal;font-variant-position:normal;font-variant-caps:normal;font-variant-numeric:normal;font-variant-alternates:normal;font-variant-east-asian:normal;font-feature-settings:normal;font-variation-settings:normal;text-indent:0;text-align:start;text-decoration:none;text-decoration-line:none;text-decoration-style:solid;text-decoration-color:#000000;letter-spacing:normal;word-spacing:normal;text-transform:none;writing-mode:lr-tb;direction:ltr;text-orientation:mixed;dominant-baseline:auto;baseline-shift:baseline;text-anchor:start;white-space:normal;shape-padding:0;shape-margin:0;inline-size:0;clip-rule:nonzero;display:inline;overflow:visible;visibility:visible;isolation:auto;mix-blend-mode:normal;color-interpolation:sRGB;color-interpolation-filters:linearRGB;solid-color:#000000;solid-opacity:1;vector-effect:none;fill:#b20000;fill-opacity:1;fill-rule:nonzero;stroke:none;stroke-width:0.277154;stroke-linecap:butt;stroke-linejoin:miter;stroke-miterlimit:4;stroke-dasharray:none;stroke-dashoffset:0;stroke-opacity:1;color-rendering:auto;image-rendering:auto;shape-rendering:auto;text-rendering:auto;enable-background:accumulate;stop-color:#000000"
           d="m 281.05273,1022.8672 c -12.43582,7.5707 -31.72788,12.5897 -53.33203,13.8848 4.24476,2.5663 8.69575,4.8262 13.32032,6.7519 14.974,-3.7814 28.60547,-10.9337 40.01171,-20.6367 z"
           transform="scale(0.26458333)" />
        <path
           id="path5897"
           style="color:#000000;font-style:normal;font-variant:normal;font-weight:normal;font-stretch:normal;font-size:medium;line-height:normal;font-family:sans-serif;font-variant-ligatures:normal;font-variant-position:normal;font-variant-caps:normal;font-variant-numeric:normal;font-variant-alternates:normal;font-variant-east-asian:normal;font-feature-settings:normal;font-variation-settings:normal;text-indent:0;text-align:start;text-decoration:none;text-decoration-line:none;text-decoration-style:solid;text-decoration-color:#000000;letter-spacing:normal;word-spacing:normal;text-transform:none;writing-mode:lr-tb;direction:ltr;text-orientation:mixed;dominant-baseline:auto;baseline-shift:baseline;text-anchor:start;white-space:normal;shape-padding:0;shape-margin:0;inline-size:0;clip-rule:nonzero;display:inline;overflow:visible;visibility:visible;isolation:auto;mix-blend-mode:normal;color-interpolation:sRGB;color-interpolation-filters:linearRGB;solid-color:#000000;solid-opacity:1;vector-effect:none;fill:#1b7e31;fill-opacity:1;fill-rule:nonzero;stroke:none;stroke-width:0.277154;stroke-linecap:butt;stroke-linejoin:miter;stroke-miterlimit:4;stroke-dasharray:none;stroke-dashoffset:0;stroke-opacity:1;color-rendering:auto;image-rendering:auto;shape-rendering:auto;text-rendering:auto;enable-background:accumulate;stop-color:#000000"
           d="m 252.04883,854.05664 c -0.0707,0.0201 -0.14224,0.0383 -0.21289,0.0586 0.32036,0.18267 0.65085,0.36246 0.95312,0.55079 2.92335,1.82173 5.11241,3.86954 6.40625,6.09765 1.29389,2.22811 1.67242,4.65065 0.94531,7.07227 -1.45422,4.84312 -6.90199,8.89172 -14.66015,11.78125 -7.75817,2.88948 -17.88564,4.60738 -28.86328,4.60742 -4.05844,7e-5 -7.99638,-0.23772 -11.74414,-0.67969 -9.36931,10.4254 -16.59061,22.81839 -20.9668,36.48438 25.7691,5.03311 56.62859,3.81037 79.91016,-3.67969 13.92465,-4.4798 23.40303,-10.65161 27.74218,-17.28906 2.16957,-3.31873 3.069,-6.73678 2.65039,-10.17188 -0.40879,-3.3541 -2.09023,-6.74245 -5.16015,-10.05664 -10.21091,-10.83765 -22.83064,-19.37425 -37,-24.77539 z"
           transform="scale(0.26458333)" />
      </g>
      <g
         id="g890"
         transform="translate(-3.9443978,3.9136508)">
        <path
           id="path6091"
           style="color:#000000;font-style:normal;font-variant:normal;font-weight:normal;font-stretch:normal;font-size:medium;line-height:normal;font-family:sans-serif;font-variant-ligatures:normal;font-variant-position:normal;font-variant-caps:normal;font-variant-numeric:normal;font-variant-alternates:normal;font-variant-east-asian:normal;font-feature-settings:normal;font-variation-settings:normal;text-indent:0;text-align:start;text-decoration:none;text-decoration-line:none;text-decoration-style:solid;text-decoration-color:#000000;letter-spacing:normal;word-spacing:normal;text-transform:none;writing-mode:lr-tb;direction:ltr;text-orientation:mixed;dominant-baseline:auto;baseline-shift:baseline;text-anchor:start;white-space:normal;shape-padding:0;shape-margin:0;inline-size:0;clip-rule:nonzero;display:inline;overflow:visible;visibility:visible;isolation:auto;mix-blend-mode:normal;color-interpolation:sRGB;color-interpolation-filters:linearRGB;solid-color:#000000;solid-opacity:1;vector-effect:none;fill:#570000;fill-opacity:1;fill-rule:nonzero;stroke:none;stroke-width:0.999999px;stroke-linecap:butt;stroke-linejoin:miter;stroke-miterlimit:4;stroke-dasharray:none;stroke-dashoffset:0;stroke-opacity:1;color-rendering:auto;image-rendering:auto;shape-rendering:auto;text-rendering:auto;enable-background:accumulate;stop-color:#000000"
           d="m 620.92969,920.08398 c -30.21967,6.86072 -48.05421,14.09165 -59.71485,21.60157 -12.35047,7.95413 -17.76031,16.2304 -23.57617,24.48633 -5.81575,8.25563 -12.04041,16.51872 -26.18945,24.79101 -7.11723,4.16092 -16.24925,8.31946 -28.32813,12.44921 l 0.14844,1.1699 -0.23047,0.541 c 35.93435,15.2026 66.13596,22.5592 91.21875,24.1192 a 7.2050406,7.0382217 2.8674507 0 1 0.0215,-0.016 l 0.0117,0.023 c 13.19338,-6.0547 23.90641,-14.8905 33.82812,-24.582 -5.4339,7.447 -10.99638,14.8875 -13.83594,23.5449 l -0.42578,1.2949 1.22461,-0.584 c 4.43838,-2.1086 8.50453,-6.0107 12.57617,-9.9023 l -6.4707,8.6738 h -0.004 l -0.006,0.01 c -0.19024,0.2825 -0.42739,0.5544 -0.70898,0.7949 a 0.05937521,0.05905281 0 0 0 0.0391,0.1016 c 0.37502,0 0.76562,-0.076 1.13086,-0.125 a 7.5203994,7.5203994 0 0 1 0.002,0 c 13.53011,-1.7374 25.06318,-5.52 34.72657,-10.8457 30.71784,-16.9294 42.56153,-49.23883 40.63476,-79.4766 l -0.002,0.004 -1.1582,0.0762 c 1.90424,29.88415 -9.75825,61.69214 -40.03907,78.3808 -9.13358,5.0337 -20.01266,8.6579 -32.71093,10.4629 l 8.11132,-10.8593 -0.88085,-0.7579 c -4.44904,4.6527 -9.05847,8.2035 -13.78711,10.875 3.565,-9.0426 9.77727,-17.0643 15.61914,-25.332 l -0.89063,-0.7383 c -10.81659,11.0948 -22.59419,21.0386 -37.17383,27.7891 -24.7317,-1.5721 -54.52205,-8.8093 -90.00195,-23.7598 11.83283,-4.0794 20.87209,-8.1942 27.94922,-12.33199 14.31318,-8.3681 20.71991,-16.84596 26.55078,-25.12305 5.83087,-8.27717 11.08704,-16.33233 23.25977,-24.17187 11.72454,-7.55089 30.03799,-14.89951 61.30859,-21.86719 z m -19.7461,107.79102 v 0 l 0.002,0.2754 a 1.2128464,1.2128464 0 0 1 -0.004,0 c 10e-4,0 10e-4,-0.065 0,-0.1387 l -0.002,-0.1347 -0.0234,0.033 c -0.1072,0.1448 -0.24356,0.3009 -0.39648,0.4531 l -0.10157,0.098 c -0.002,0 -0.004,-10e-5 -0.006,0 0.20144,-0.1866 0.37833,-0.3857 0.53125,-0.5938 z m 0.008,0.293 a 7.5203994,7.5203994 0 0 1 0.30273,0.2031 c -0.003,4e-4 -0.005,-4e-4 -0.008,0 -9.9e-4,0 -0.22117,-0.1528 -0.2793,-0.1875 -0.017,-0.01 -0.0134,-0.012 -0.0156,-0.016 z"
           transform="matrix(0.26458333,0,0,0.26458333,5.1173725,-29.529909)" />
        <path
           id="path6180"
           style="fill:#8c8c8c;fill-opacity:1;stroke:none;stroke-width:0.264583px;stroke-linecap:butt;stroke-linejoin:miter;stroke-opacity:1"
           d="m 196.02245,190.55318 c -0.8211,0.26087 -1.73753,0.6407 -2.75957,1.15954 -7.27268,3.69206 -17.40877,12.96746 -25.10048,22.59817 a 19.291339,19.291339 0 0 1 3.42936,-0.1346 19.291339,19.291339 0 0 1 12.48796,5.441 c 4.4628,-4.70076 8.64722,-9.8666 11.81392,-14.77516 2.57169,-3.98623 4.1443,-7.29453 4.75776,-9.75926 -0.002,-0.003 -0.004,-0.006 -0.006,-0.009 -1.10144,-1.56408 -2.3513,-3.02738 -4.11513,-4.22467 -0.16753,-0.10091 -0.33467,-0.20235 -0.50827,-0.29571 z" />
        <ellipse
           style="fill:#ebebeb;fill-opacity:1;stroke:#000000;stroke-width:0.532266;stroke-linecap:round;stroke-linejoin:round;stroke-miterlimit:4;stroke-dasharray:none;stroke-opacity:1"
           id="ellipse6196"
           cx="275.42496"
           cy="-8.8971119"
           rx="5.8417482"
           ry="2.3635771"
           transform="matrix(0.68249645,0.73088891,-0.82610106,0.56352199,0,0)" />
        <ellipse
           style="fill:#ebebeb;fill-opacity:1;stroke:#000000;stroke-width:0.532266;stroke-linecap:round;stroke-linejoin:round;stroke-miterlimit:4;stroke-dasharray:none"
           id="path6194"
           cx="274.80429"
           cy="-11.255426"
           rx="5.8417482"
           ry="2.3635771"
           transform="matrix(0.68249645,0.73088891,-0.82610106,0.56352199,0,0)" />
        <path
           id="path6190"
           style="opacity:0.999;fill:#0c4013;fill-opacity:1;stroke:none;stroke-width:0.264584px;stroke-linecap:butt;stroke-linejoin:miter;stroke-opacity:1"
           d="m 264.53943,115.97208 c -1.04286,-0.15159 -4.68588,2.72199 -10.98919,8.88494 -15.4887,15.14386 -38.09653,39.14672 -59.70028,66.66702 2.45517,1.74959 4.54143,3.96591 6.1395,6.52228 19.44364,-20.56569 36.2627,-41.67961 50.6692,-60.28472 10.80582,-13.95504 15.50761,-21.55317 13.88077,-21.78952 z"
           sodipodi:nodetypes="ssccss" />
        <path
           style="fill:#072c0e;fill-opacity:1;stroke:none;stroke-width:0.264584px;stroke-linecap:butt;stroke-linejoin:miter;stroke-opacity:1"
           d="m 247.75699,141.49995 c -5.44198,5.20568 -10.45796,11.14068 -16.53996,15.25061 -2.72218,1.85574 -3.24086,1.29013 -1.67518,-1.56591 3.68128,-6.70714 10.13776,-14.4332 15.36684,-21.69434 4.45016,-4.65355 9.34016,-9.29787 14.32308,-13.94024 5.64309,-5.09646 7.48029,-5.38802 2.74685,2.61575 -4.32838,6.58402 -9.24765,12.96832 -14.22163,19.33413 z"
           id="path890"
           sodipodi:nodetypes="ccccccc" />
        <path
           style="opacity:0.2;fill:#ffffff;fill-opacity:1;stroke:none;stroke-width:0.22743px;stroke-linecap:butt;stroke-linejoin:miter;stroke-opacity:1;filter:url(#filter1873)"
           d="m 281.09641,310.22978 c -11.35788,15.18755 -30.42619,39.19641 -42.56299,53.59097 -12.13685,14.39462 -12.76904,13.75109 -1.41121,-1.43639 11.35789,-15.18755 30.4262,-39.19642 42.56299,-53.59097 12.13685,-14.39463 12.76904,-13.75109 1.41121,1.43639 z"
           id="path1189"
           inkscape:path-effect="#path-effect1191"
           inkscape:original-d="M 289.24206,298.45033 228.97657,374.1638"
           transform="matrix(1.1619062,0.05819787,-0.05819787,1.1619062,-60.965087,-241.78932)" />
        <path
           style="fill:none;stroke:none;stroke-width:0.264583px;stroke-linecap:butt;stroke-linejoin:miter;stroke-opacity:1"
           d="m 164.17961,242.38328 -0.2571,0.26347 0.38138,-0.0598 z"
           id="path920" />
        <path
           style="fill:none;stroke:none;stroke-width:0.0264583;stroke-linecap:butt;stroke-linejoin:miter;stroke-miterlimit:4;stroke-dasharray:none;stroke-opacity:1"
           d="m 164.1827,242.38471 c -0.054,0.11709 -0.13099,0.18759 -0.23581,0.24204 0.12213,-0.004 0.24839,-0.007 0.36271,-0.0411 z"
           id="path923"
           sodipodi:nodetypes="cccc" />
        <path
           style="fill:#570000;fill-opacity:1;stroke:#570000;stroke-width:2.7;stroke-linecap:round;stroke-linejoin:round;stroke-miterlimit:4;stroke-dasharray:none;stroke-opacity:1"
           d="m 570.74834,1027.6926 c -22.10876,-1.9182 -47.32809,-8.1957 -73.78059,-18.3653 -10.16401,-3.9075 -12.57945,-4.9893 -11.77933,-5.2758 12.62429,-4.5205 23.04002,-9.38493 30.40227,-14.19872 9.69865,-6.34145 15.37231,-12.04059 23.68408,-23.79045 10.68973,-15.11144 17.20395,-20.98935 30.90963,-27.89035 11.34203,-5.71087 23.2375,-9.83549 43.16713,-14.96771 l 7.24784,-1.86644 6.36396,0.0315 c 11.39592,0.0564 20.86488,2.34946 31.28948,7.5774 6.13366,3.07603 13.51022,8.18782 16.76145,11.6153 l 1.02831,1.08406 -0.22999,5.93256 c -0.52202,13.46534 -3.32367,25.02766 -8.71939,35.9846 -9.61029,19.51535 -25.8496,33.03625 -47.76767,39.77155 -4.11447,1.2644 -10.69028,2.7848 -14.42231,3.3346 l -1.55402,0.2289 0.87459,-1.1614 c 5.60382,-7.4419 7.03411,-9.4927 6.83976,-9.8072 -0.43002,-0.6958 -0.99089,-0.3677 -3.58576,2.0971 -3.86013,3.6668 -10.38971,8.337 -10.38971,7.4311 0,-0.7576 3.5953,-7.4237 6.16177,-11.4247 1.39479,-2.1744 4.00426,-5.9897 5.79882,-8.4784 1.79456,-2.4886 3.16925,-4.6763 3.05488,-4.8613 -0.36084,-0.5839 -1.07445,-0.3681 -1.96075,0.5928 -3.91694,4.2466 -14.23947,13.1367 -20.12579,17.333 -6.32668,4.5102 -15.16681,9.359 -16.87432,9.2554 -0.53907,-0.033 -1.61652,-0.1146 -2.39434,-0.1821 z"
           id="path1076"
           transform="matrix(0.26458333,0,0,0.26458333,5.1173725,-29.529909)" />
        <path
           style="fill:#570000;fill-opacity:1;stroke:none;stroke-width:0.264583px;stroke-linecap:butt;stroke-linejoin:miter;stroke-opacity:1"
           d="m 164.02719,242.58492 0.17787,-0.19754 0.11168,0.17084 -0.29097,0.0449 z"
           id="path1084" />
        <path
           style="fill:none;stroke:none;stroke-width:0.264583px;stroke-linecap:butt;stroke-linejoin:miter;stroke-opacity:1"
           d="m 164.41,242.08181 1.02472,-1.4157 -0.90524,1.60805 z"
           id="path1086" />
      </g>
    </g>
  </g>
</svg>
