<?xml version="1.0" encoding="UTF-8"?>
<svg width="1280" height="720" version="1.1" viewBox="0 0 338.67 190.5" xmlns="http://www.w3.org/2000/svg" xmlns:cc="http://creativecommons.org/ns#" xmlns:dc="http://purl.org/dc/elements/1.1/" xmlns:rdf="http://www.w3.org/1999/02/22-rdf-syntax-ns#">
 <defs>
  <filter id="filter1097" x="-.0060046" y="-7.9152" width="1.012" height="16.83" color-interpolation-filters="sRGB">
   <feGaussianBlur stdDeviation="0.43144184"/>
  </filter>
  <filter id="filter1137" x="-.0060046" y="-7.9152" width="1.012" height="16.83" color-interpolation-filters="sRGB">
   <feGaussianBlur stdDeviation="0.43144184"/>
  </filter>
 </defs>
 <metadata>
  <rdf:RDF>
   <cc:Work rdf:about="">
    <dc:format>image/svg+xml</dc:format>
    <dc:type rdf:resource="http://purl.org/dc/dcmitype/StillImage"/>
    <dc:title/>
   </cc:Work>
  </rdf:RDF>
 </metadata>
 <rect x="41.466" y="1.1685" width="255.73" height="188.16" ry="17.765" fill="#262626"/>
 <g transform="matrix(1.7393 0 0 1.7393 -67.619 -57.008)" fill="#d5d5d5" stroke-width=".26458" aria-label="&lt;?_">
  <path d="m73.893 58.768 16.383-6.8961 1.4859 4.6101-11.963 4.6482 11.963 4.6482-1.4859 4.6101-16.383-6.8961z"/>
  <path d="m102.61 50.348q-1.3716 0-2.5908 0.3429-1.2192 0.3429-2.7051 1.1049l-1.6002-4.3053q1.4859-0.9525 3.5052-1.4478 2.0193-0.5334 3.9624-0.5334 2.4384 0 4.0005 0.6477 1.6002 0.6477 2.5146 1.6383t1.2573 2.1717q0.381 1.1811 0.381 2.2479t-0.3429 1.9812q-0.3048 0.8763-0.8001 1.6383t-1.143 1.4478-1.2573 1.2954q-0.4572 0.4572-0.9525 0.9906-0.4953 0.4953-0.9144 1.0668-0.381 0.5715-0.6477 1.2192-0.2667 0.6096-0.2667 1.2573 0 0.1524 0 0.4572t0.0381 0.5334h-5.0292q-0.07621-0.381-0.1143-0.8382 0-0.4953 0-0.8382 0-1.0668 0.2667-1.905 0.2667-0.8763 0.6858-1.6002 0.4572-0.762 1.0287-1.4097t1.1811-1.2573q0.87629-0.8763 1.6002-1.7145 0.7239-0.8763 0.7239-1.9812 0-0.9144-0.7239-1.5621-0.6858-0.6477-2.0574-0.6477zm3.5433 19.164q0 1.6764-1.1049 2.5908-1.0668 0.9144-2.4384 0.9144-1.3716 0-2.4765-0.9144-1.0668-0.9144-1.0668-2.5908 0-1.6764 1.0668-2.5908 1.1049-0.9144 2.4765-0.9144 1.3716 0 2.4384 0.9144 1.1049 0.9144 1.1049 2.5908z"/>
  <path d="m113.61 74.846h19.05v4.7244h-19.05z"/>
 </g>
 <path transform="matrix(1.2938 0 0 1.2938 -49.755 -27.987)" d="m82.299 167.7 172.45 0.13082" fill="none" filter="url(#filter1137)" stroke="#d9d9d9" stroke-width=".26458px"/>
 <path transform="matrix(1.2938 0 0 1.2938 -49.755 -27.987)" d="m82.299 22.667 172.45 0.13082" fill="none" filter="url(#filter1097)" stroke="#d5d5d5" stroke-width=".26458px"/>
</svg>
